<svg id="Capa_1" enable-background="new 0 0 512 512" height="512" viewBox="0 0 512 512" width="512" xmlns="http://www.w3.org/2000/svg"><g><path d="m350.949 156.811c-9.593-88.053-84.387-156.811-174.949-156.811-97.047 0-176 78.953-176 176 0 126.687 76.318 257.868 163.081 331.268 7.456 6.31 18.383 6.311 25.84-.002.71-.602 14.76-12.564 34.375-33.985 30.411 24.221 68.894 38.719 110.704 38.719 98.149 0 178-79.851 178-178 0-92.434-70.823-168.626-161.051-177.189zm-174.936 307.875c-36.2-35.574-136.013-146.565-136.013-288.686 0-74.99 61.01-136 136-136 68.722 0 125.693 51.24 134.738 117.519-13.658 1.791-26.831 5.14-39.341 9.856-4.375-48.792-45.486-87.165-95.397-87.165-52.819 0-95.791 42.972-95.791 95.79 0 49.911 38.374 91.022 87.167 95.397-7.345 19.485-11.376 40.581-11.376 62.603 0 41.944 14.592 80.538 38.953 110.994-7.277 7.995-13.758 14.612-18.94 19.692zm55.777-288.686c0 4.605-.566 9.137-1.665 13.541-15.61 11.256-29.328 24.975-40.584 40.585-4.404 1.098-8.936 1.665-13.541 1.665-30.764 0-55.791-25.027-55.791-55.79s25.027-55.79 55.791-55.79c30.763-.001 55.79 25.026 55.79 55.789zm102.21 296c-76.094 0-138-61.906-138-138s61.906-138.001 138-138.001 138 61.907 138 138.001-61.906 138-138 138zm20-146.284 21.719 21.718c7.811 7.81 7.811 20.474 0 28.284-7.81 7.811-20.474 7.811-28.285 0l-27.577-27.577c-3.75-3.751-5.857-8.838-5.857-14.143v-77.521c0-10.845 8.433-20.081 19.271-20.466 11.378-.404 20.729 8.699 20.729 19.987z"/></g></svg>