<?xml version="1.0" encoding="UTF-8" standalone="no"?>
<svg
   xmlns:dc="http://purl.org/dc/elements/1.1/"
   xmlns:cc="http://creativecommons.org/ns#"
   xmlns:rdf="http://www.w3.org/1999/02/22-rdf-syntax-ns#"
   xmlns:svg="http://www.w3.org/2000/svg"
   xmlns="http://www.w3.org/2000/svg"
   xmlns:sodipodi="http://sodipodi.sourceforge.net/DTD/sodipodi-0.dtd"
   xmlns:inkscape="http://www.inkscape.org/namespaces/inkscape"
   height="512pt"
   viewBox="-16 0 512 512"
   width="512pt"
   version="1.1"
   id="svg564"
   sodipodi:docname="fav-schedule-time.svg"
   inkscape:version="0.92.5 (2060ec1f9f, 2020-04-08)">
  <metadata
     id="metadata570">
    <rdf:RDF>
      <cc:Work
         rdf:about="">
        <dc:format>image/svg+xml</dc:format>
        <dc:type
           rdf:resource="http://purl.org/dc/dcmitype/StillImage" />
      </cc:Work>
    </rdf:RDF>
  </metadata>
  <defs
     id="defs568" />
  <sodipodi:namedview
     pagecolor="#ffffff"
     bordercolor="#666666"
     borderopacity="1"
     objecttolerance="10"
     gridtolerance="10"
     guidetolerance="10"
     inkscape:pageopacity="0"
     inkscape:pageshadow="2"
     inkscape:window-width="1920"
     inkscape:window-height="1020"
     id="namedview566"
     showgrid="false"
     inkscape:zoom="0.34570313"
     inkscape:cx="341.33333"
     inkscape:cy="341.33333"
     inkscape:window-x="0"
     inkscape:window-y="0"
     inkscape:window-maximized="1"
     inkscape:current-layer="svg564" />
  <path
     d="m 364.81006,53.878484 -15.76853,4.931429 7.51969,24.044659 c 1.41619,4.528385 -1.05355,9.240974 -5.37378,10.766151 -4.32423,1.523083 -9.24402,-1.052591 -10.7671,-5.376817 l -0.0486,-0.155516 -7.56833,-24.200179 -16.23814,5.078293 7.51968,24.044659 c 1.41621,4.528387 -1.05049,9.240027 -5.37377,10.766147 -4.32422,1.52309 -9.24097,-1.05354 -10.7671,-5.376813 l -0.0486,-0.155515 -7.56833,-24.200181 -16.23509,5.07734 7.51968,24.044659 c 1.4162,4.52838 -1.05354,9.24097 -5.37681,10.76711 -4.32118,1.52213 -9.24098,-1.05355 -10.76406,-5.37778 l -0.0486,-0.15551 -7.56833,-24.200183 -144.89003,45.312673 7.51969,24.04466 c 1.41619,4.52838 -1.0505,9.24003 -5.57888,10.65622 -4.52839,1.41621 -9.24307,-1.04954 -10.65927,-5.57792 l -7.51969,-24.04467 -16.079581,5.02871 7.519687,24.04466 c 1.4162,4.52838 -1.053543,9.24097 -5.58193,10.65717 -4.525334,1.41524 -9.240021,-1.05049 -10.65622,-5.57887 l -7.519755,-24.04468 -16.238151,5.0783 7.519691,24.04464 c 1.4162,4.52838 -1.050498,9.24003 -5.578883,10.65622 -4.528386,1.41621 -9.243068,-1.04954 -10.659268,-5.57792 l -7.519687,-24.04467 -14.987889,4.6873 c -5.309036,1.66033 -8.204407,7.19565 -6.545021,12.50164 l 18.360054,58.70739 c 1.659386,5.30599 7.192605,8.20537 12.501642,6.54502 L 389.12675,131.63254 c 5.30903,-1.66034 8.2044,-7.19566 6.54501,-12.50164 L 377.31172,60.423507 c -1.6594,-5.30599 -7.19262,-8.205362 -12.50166,-6.545023 z m 0,0"
     id="path440"
     inkscape:connector-curvature="0"
     style="fill:#ea4647;stroke-width:0.81793642" />
  <path
     d="m 285.12469,340.01427 c -14.98977,-47.93075 11.7745,-98.80964 59.55278,-113.75175 27.16421,-8.49528 56.72505,-3.85732 79.90599,12.71846 L 390.84357,131.09562 49.699098,237.78459 123.91751,475.10248 c 1.66033,5.30904 7.19565,8.20442 12.50164,6.54502 l 262.4573,-82.08046 c -47.77828,14.9421 -98.76196,-11.62202 -113.75176,-59.55277 z m 0,0"
     id="path442"
     inkscape:connector-curvature="0"
     style="fill:#e9e9ea;stroke-width:0.81793642" />
  <path
     d="m 458.42921,285.8153 c 14.9669,47.85756 -11.69825,98.78579 -59.55276,113.75174 -47.85757,14.9669 -98.78485,-11.69521 -113.75176,-59.55277 -14.96689,-47.85757 11.69522,-98.78485 59.55278,-113.75175 47.85452,-14.96594 98.78484,11.69521 113.75174,59.55278 z m 0,0"
     id="path444"
     inkscape:connector-curvature="0"
     style="fill:#55acd5;stroke-width:0.81793642" />
  <path
     d="m 438.91294,291.91877 c 11.59567,37.07788 -9.06211,76.53632 -46.13998,88.13199 -37.08093,11.59663 -76.53632,-9.06211 -88.13199,-46.13998 -11.59567,-37.07788 9.05907,-76.53536 46.13999,-88.13198 37.07787,-11.59567 76.5363,9.06211 88.13198,46.13997 z m 0,0"
     id="path446"
     inkscape:connector-curvature="0"
     style="fill:#ffcd29;stroke-width:0.81793642" />
  <path
     d="m 379.58346,310.47339 c 1.34849,4.31187 -1.05628,8.90037 -5.3651,10.2479 -4.31188,1.34849 -8.89943,-1.05324 -10.24791,-5.36511 -1.34849,-4.31188 1.05324,-8.89942 5.36511,-10.24791 4.30883,-1.34754 8.89942,1.05324 10.2479,5.36512 z m 0,0"
     id="path448"
     inkscape:connector-curvature="0"
     style="fill:#e9e9ea;stroke-width:0.81793642" />
  <path
     d="m 39.993854,120.15313 c 4.528385,-1.41619 9.240974,1.05355 10.656219,5.57889 l 15.039378,48.08931 c 1.4162,4.52838 -1.050498,9.24003 -5.578883,10.65622 -4.528386,1.41621 -9.243068,-1.04954 -10.659268,-5.57792 L 34.363287,130.65479 c -1.36661,-4.36981 1.2577,-9.13408 5.630567,-10.50166 z m 0,0"
     id="path450"
     inkscape:connector-curvature="0"
     style="fill:#e9e9ea;stroke-width:0.81793642" />
  <path
     d="m 72.467104,109.99751 c 4.528387,-1.41621 9.244023,1.05258 10.659269,5.57793 l 15.039375,48.08931 c 1.4162,4.52839 -1.053543,9.24097 -5.58193,10.65718 -4.525334,1.41524 -9.240021,-1.05049 -10.65622,-5.57888 L 66.839587,120.4982 c -1.366611,-4.36981 1.10218,-9.08545 5.627517,-10.50069 z m 0,0"
     id="path452"
     inkscape:connector-curvature="0"
     style="fill:#e9e9ea;stroke-width:0.81793642" />
  <path
     d="m 104.9434,99.840921 c 4.52839,-1.416197 9.24098,1.053539 10.65622,5.578879 l 15.03938,48.08932 c 1.41621,4.52838 -1.05049,9.24003 -5.57888,10.65622 -4.52839,1.4162 -9.24002,-1.0505 -10.65622,-5.57889 L 99.315887,110.34162 c -1.366611,-4.36982 1.099133,-9.0845 5.627513,-10.500699 z m 0,0"
     id="path454"
     inkscape:connector-curvature="0"
     style="fill:#e9e9ea;stroke-width:0.81793642" />
  <path
     d="m 265.91302,49.499542 c 4.52839,-1.416199 9.24402,1.052592 10.65927,5.577928 l 15.03937,48.08932 c 1.4162,4.52838 -1.05354,9.24097 -5.58192,10.65717 -4.52839,1.41619 -9.24003,-1.05049 -10.65622,-5.57888 L 260.2855,60.000242 c -1.36661,-4.369817 1.25771,-9.134089 5.62752,-10.5007 z m 0,0"
     id="path456"
     inkscape:connector-curvature="0"
     style="fill:#e9e9ea;stroke-width:0.81793642" />
  <path
     d="m 298.38932,39.342956 c 4.52838,-1.4162 9.24097,1.053545 10.65622,5.578882 l 15.03937,48.089318 c 1.41621,4.528387 -1.05049,9.240024 -5.57887,10.656224 -4.52839,1.4162 -9.24308,-1.04955 -10.65927,-5.577931 l -15.08802,-48.24484 c -1.36661,-4.369817 1.10218,-9.085453 5.63057,-10.501653 z m 0,0"
     id="path458"
     inkscape:connector-curvature="0"
     style="fill:#e9e9ea;stroke-width:0.81793642" />
  <path
     d="m 330.86257,29.187324 c 4.52838,-1.4162 9.24403,1.052593 10.65927,5.577927 l 15.03938,48.089321 c 1.41619,4.528385 -1.05355,9.240974 -5.58193,10.657173 -4.52534,1.415248 -9.24002,-1.050495 -10.65623,-5.578882 L 325.23505,39.688025 c -1.36661,-4.369817 1.10218,-9.085454 5.62752,-10.500701 z m 0,0"
     id="path460"
     inkscape:connector-curvature="0"
     style="fill:#e9e9ea;stroke-width:0.81793642" />
  <path
     d="m 196.90788,226.19759 17.64393,-5.51793 c 3.90327,-1.2207 8.15794,0.87671 9.42727,4.93548 l 5.51794,17.64395 c 1.2207,3.90324 -0.87671,8.15793 -4.93549,9.42726 l -17.64393,5.51793 c -3.90325,1.22071 -8.15794,-0.87671 -9.42727,-4.93548 l -5.51794,-17.64394 c -1.26933,-4.05877 0.87672,-8.15792 4.93549,-9.42727 z m 0,0"
     id="path462"
     inkscape:connector-curvature="0"
     style="fill:#acdef9;stroke-width:0.81793642" />
  <path
     d="m 244.68312,211.25645 17.64393,-5.51793 c 3.90325,-1.22071 8.15793,0.8767 9.42727,4.93547 l 5.51793,17.64395 c 1.2207,3.90325 -0.87671,8.15793 -4.93549,9.42725 l -17.64394,5.51795 c -3.90324,1.2207 -8.15793,-0.87671 -9.42726,-4.9355 l -5.51793,-17.64393 c -1.26933,-4.05877 1.03222,-8.20656 4.93549,-9.42726 z m 0,0"
     id="path464"
     inkscape:connector-curvature="0"
     style="fill:#acdef9;stroke-width:0.81793642" />
  <path
     d="m 292.61691,196.26572 17.64088,-5.51699 c 3.90325,-1.2207 8.16098,0.87576 9.43032,4.93454 l 5.51794,17.64393 c 1.2207,3.90324 -0.87671,8.15793 -4.93854,9.42822 l -17.64088,5.51698 c -3.90325,1.2207 -8.15794,-0.87672 -9.42727,-4.93548 l -5.51794,-17.64394 c -1.26933,-4.05877 0.87672,-8.15793 4.93549,-9.42726 z m 0,0"
     id="path466"
     inkscape:connector-curvature="0"
     style="fill:#6dcc6d;stroke-width:0.81793642" />
  <path
     d="m 116.14305,303.90376 17.64089,-5.51698 c 3.90325,-1.22071 8.15793,0.87671 9.42727,4.93549 l 5.51793,17.64393 c 1.2207,3.90325 -0.8767,8.15793 -4.93549,9.42727 l -17.64088,5.51698 c -3.90325,1.22069 -8.16098,-0.87576 -9.43032,-4.93453 l -5.51793,-17.64394 c -1.22069,-3.90325 0.87671,-8.15793 4.93853,-9.42822 z m 0,0"
     id="path468"
     inkscape:connector-curvature="0"
     style="fill:#6dcc6d;stroke-width:0.81793642" />
  <path
     d="m 163.91828,288.96261 17.64089,-5.51698 c 3.90325,-1.2207 8.16098,0.87575 9.43031,4.93453 l 5.51794,17.64393 c 1.22069,3.90326 -0.87672,8.15794 -4.93854,9.42824 L 173.928,320.9693 c -3.90325,1.22069 -8.15793,-0.87671 -9.42727,-4.93548 l -5.51793,-17.64393 c -1.22071,-3.90326 1.03222,-8.20658 4.93548,-9.42728 z m 0,0"
     id="path470"
     inkscape:connector-curvature="0"
     style="fill:#6dcc6d;stroke-width:0.81793642" />
  <path
     d="m 211.84903,273.97283 17.64393,-5.51793 c 3.90326,-1.2207 8.15794,0.87671 9.42727,4.93548 l 5.51793,17.64393 c 1.22071,3.90325 -0.8767,8.15793 -4.93548,9.42727 l -17.64393,5.51794 c -3.90325,1.22069 -8.15794,-0.87672 -9.42728,-4.93549 l -5.51793,-17.64393 c -1.22069,-3.90325 0.87671,-8.15794 4.93549,-9.42727 z m 0,0"
     id="path472"
     inkscape:connector-curvature="0"
     style="fill:#6dcc6d;stroke-width:0.81793642" />
  <path
     d="m 131.13379,351.83755 17.64089,-5.51697 c 3.90324,-1.2207 8.15793,0.87671 9.42727,4.93548 l 5.51697,17.64089 c 1.2207,3.90324 -0.87575,8.16097 -4.93452,9.43031 l -17.64089,5.51698 c -3.90325,1.2207 -8.16098,-0.87575 -9.43127,-4.93758 l -5.51699,-17.64088 c -1.26933,-4.05877 0.87672,-8.15794 4.93854,-9.42823 z m 0,0"
     id="path474"
     inkscape:connector-curvature="0"
     style="fill:#acdef9;stroke-width:0.81793642" />
  <path
     d="m 178.90901,336.8964 17.64089,-5.51697 c 3.90326,-1.2207 8.16099,0.87575 9.43032,4.93453 l 5.51699,17.64088 c 1.22069,3.90325 -0.87576,8.16099 -4.93759,9.43128 l -17.64088,5.51697 c -3.90325,1.22071 -8.15795,-0.8767 -9.42822,-4.93853 l -5.51699,-17.64088 c -1.26932,-4.05878 1.03224,-8.20657 4.93548,-9.42728 z m 0,0"
     id="path476"
     inkscape:connector-curvature="0"
     style="fill:#acdef9;stroke-width:0.81793642" />
  <path
     d="m 226.83977,321.90663 17.64393,-5.51793 c 3.90326,-1.22071 8.15794,0.8767 9.42727,4.93547 l 5.51699,17.6409 c 1.22069,3.90324 -0.87577,8.16098 -4.93454,9.43031 l -17.64393,5.51794 c -3.90326,1.22069 -8.15794,-0.87672 -9.42822,-4.93853 l -5.51699,-17.6409 c -1.26933,-4.05877 0.87671,-8.15793 4.93549,-9.42726 z m 0,0"
     id="path478"
     inkscape:connector-curvature="0"
     style="fill:#acdef9;stroke-width:0.81793642" />
  <path
     d="m 146.07494,399.61278 17.64088,-5.51697 c 3.90325,-1.22071 8.15794,0.8767 9.42728,4.93548 l 5.51793,17.64393 c 1.22069,3.90326 -0.87671,8.15794 -4.93549,9.42728 l -17.64088,5.51698 c -3.90326,1.22069 -8.16099,-0.87576 -9.43032,-4.93454 L 141.1364,409.041 c -1.2207,-3.90324 0.87672,-8.15793 4.93854,-9.42822 z m 0,0"
     id="path480"
     inkscape:connector-curvature="0"
     style="fill:#acdef9;stroke-width:0.81793642" />
  <path
     d="m 193.85016,384.67164 17.64089,-5.51698 c 3.90325,-1.2207 8.16099,0.87575 9.43031,4.93453 l 5.51794,17.64394 c 1.2207,3.90324 -0.87671,8.15793 -4.93853,9.42822 l -17.64089,5.51698 c -3.90325,1.2207 -8.15793,-0.87672 -9.42727,-4.93548 l -5.51792,-17.64394 c -1.22071,-3.90326 1.03222,-8.20658 4.93547,-9.42727 z m 0,0"
     id="path482"
     inkscape:connector-curvature="0"
     style="fill:#acdef9;stroke-width:0.81793642" />
  <path
     d="m 241.78092,369.68185 17.64393,-5.51793 c 3.90325,-1.2207 8.15794,0.87671 9.42727,4.93548 l 5.51793,17.64393 c 1.2207,3.90326 -0.87671,8.15794 -4.93548,9.42728 l -17.64393,5.51793 c -3.90325,1.22069 -8.15794,-0.87671 -9.42728,-4.93549 l -5.51793,-17.64393 c -1.2207,-3.90324 0.87671,-8.15794 4.93549,-9.42727 z m 0,0"
     id="path484"
     inkscape:connector-curvature="0"
     style="fill:#acdef9;stroke-width:0.81793642" />
  <path
     d="m 340.39213,181.32457 17.64394,-5.51794 c 3.90325,-1.22071 8.15793,0.87671 9.42727,4.93549 l 5.51793,17.64393 c 1.2207,3.90325 -0.8767,8.15793 -4.93548,9.42727 l -17.64393,5.51794 c -3.90326,1.22069 -8.15794,-0.87672 -9.42728,-4.93549 l -5.51792,-17.64394 c -1.11382,-4.10741 1.03223,-8.20657 4.93547,-9.42726 z m 0,0"
     id="path486"
     inkscape:connector-curvature="0"
     style="fill:#6dcc6d;stroke-width:0.81793642" />
  <path
     d="m 290.89542,271.87886 -4.19995,-13.42963 c -1.2207,-3.90325 -5.52403,-6.15619 -9.42727,-4.93548 l -17.64394,5.51793 c -3.90326,1.2207 -6.15619,5.52401 -4.9355,9.42728 l 5.51795,17.64392 c 1.22069,3.90325 5.52401,6.15618 9.42726,4.93549 l 15.45751,-4.83415 c 1.54223,-4.93807 3.44414,-9.81788 5.80394,-14.32536 z m 0,0"
     id="path488"
     inkscape:connector-curvature="0"
     style="fill:#acdef9;stroke-width:0.81793642" />
  <path
     d="m 238.00657,22.748382 -2.80851,0.878332 -0.87928,-2.811563 c -0.68379,-2.186435 -2.93752,-3.366338 -5.12396,-2.682558 -2.18643,0.683782 -3.36633,2.937522 -2.68256,5.123951 l 0.87928,2.811563 -2.81156,0.879284 c -2.18642,0.683783 -3.36634,2.93752 -2.68255,5.123955 0.68283,2.183382 2.93752,3.366338 5.12395,2.682555 l 2.81156,-0.879284 0.87834,2.808516 c 0.68378,2.186432 2.93752,3.366338 5.12395,2.682558 2.18643,-0.683782 3.36633,-2.937522 2.68255,-5.123954 l -0.87832,-2.808513 2.80851,-0.878331 c 2.18644,-0.68378 3.36539,-2.940568 2.68256,-5.123952 -0.68378,-2.186433 -2.93752,-3.366339 -5.12396,-2.682559 z m 0,0"
     id="path490"
     inkscape:connector-curvature="0"
     style="fill:#55acd5;stroke-width:0.81793642" />
  <path
     d="m 212.18495,64.588364 c -0.0973,-0.311041 -0.30237,-0.42097 -0.39966,-0.732013 -0.20415,-0.106884 -0.30237,-0.420971 -0.50959,-0.526904 -0.20416,-0.106884 -0.45695,-0.369286 -0.66205,-0.479216 -2,-0.914456 -4.34196,-0.182039 -5.46456,1.708976 -0.10595,0.207203 -0.21587,0.412315 -0.27412,0.771992 -0.16417,0.566888 -0.17377,1.082088 -0.1855,1.601281 -0.009,0.518247 0.1859,1.140331 0.48828,1.561304 0.0973,0.31104 0.30543,0.420017 0.40271,0.731058 0.2528,0.262407 0.30239,0.420975 0.50655,0.527859 0.20415,0.106883 0.45695,0.369286 0.6651,0.478264 2.04959,1.073023 4.39154,0.340605 5.46456,-1.708977 0.10595,-0.207203 0.21281,-0.411364 0.271,-0.771056 0.10684,-0.20417 0.16729,-0.567824 0.11867,-0.72334 0.10683,-0.204169 0.009,-0.518247 -0.0886,-0.829287 -0.04,-0.673768 -0.1859,-1.140331 -0.33276,-1.609939 z m 0,0"
     id="path492"
     inkscape:connector-curvature="0"
     style="fill:#ffcd29;stroke-width:0.81793642" />
  <path
     d="m 134.7316,70.127675 c -5.4463,0.675527 -10.77441,-2.113907 -13.52949,-7.08058 -0.0486,-0.15552 -0.20415,-0.106884 -0.35967,-0.05825 -0.15552,0.04864 -0.10689,0.204158 -0.10689,0.204158 0.67553,5.446295 -2.11696,10.775357 -7.08153,13.526426 -0.15857,0.0496 -0.10994,0.205114 -0.0603,0.363687 0.0486,0.15552 0.2072,0.105945 0.2072,0.105945 5.44324,-0.674568 10.77135,2.114866 13.52643,7.081535 0.0486,0.155529 0.20417,0.106836 0.35969,0.05822 0.15551,-0.04862 0.10688,-0.204156 0.10688,-0.204156 -0.67248,-5.447242 2.11696,-10.775355 7.08458,-13.527384 0.15552,-0.04862 0.10689,-0.204165 0.0573,-0.362729 -0.0486,-0.15552 -0.0486,-0.15552 -0.20414,-0.106933 z m 0,0"
     id="path494"
     inkscape:connector-curvature="0"
     style="fill:#6dcc6d;stroke-width:0.81793642" />
  <g
     id="g562"
     transform="matrix(0.78065096,-0.24413952,0.24413952,0.78065096,-8.7481967,92.546506)"
     style="fill:#231f20">
    <path
       d="m 46.800781,137.39844 c -8.402343,0 -15.402343,-6.79688 -15.402343,-15.39844 V 60.199219 c 0,-8.398438 6.800781,-15.398438 15.402343,-15.398438 8.597657,0 15.398438,6.800781 15.398438,15.398438 V 122 c 0,8.39844 -6.800781,15.39844 -15.398438,15.39844 z m 0,-82.39844 c -3,0 -5.402343,2.398438 -5.402343,5.398438 V 122 c 0,3 2.402343,5.39844 5.402343,5.39844 3,0 5.398438,-2.39844 5.398438,-5.39844 V 60.199219 C 52.199219,57.398438 49.800781,55 46.800781,55 Z m 0,0"
       id="path496"
       inkscape:connector-curvature="0" />
    <path
       d="M 88.398438,137.39844 C 80,137.39844 73,130.60156 73,122 V 60.199219 C 73,51.800781 80,44.800781 88.601562,45 97,45 103.80078,51.800781 103.80078,60.199219 V 122 c 0,8.39844 -6.999999,15.39844 -15.402342,15.39844 z m 0,-82.39844 C 85.398438,55 83,57.398438 83,60.398438 V 122 c 0,3 2.601562,5.39844 5.398438,5.19922 2.800781,0 5.203124,-2.39844 5.203124,-5.19922 V 60.199219 C 93.800781,57.398438 91.398438,55 88.398438,55 Z m 0,0"
       id="path498"
       inkscape:connector-curvature="0" />
    <path
       d="m 130,137.39844 c -8.39844,0 -15.39844,-6.79688 -15.39844,-15.39844 V 60.199219 c 0,-8.398438 6.79688,-15.398438 15.39844,-15.398438 8.60156,0 15.39844,6.800781 15.39844,15.398438 V 122 c -0.19922,8.39844 -7,15.39844 -15.39844,15.39844 z M 130,55 c -3,0 -5.39844,2.398438 -5.39844,5.398438 V 122 c 0,3 2.39844,5.39844 5.39844,5.39844 3,0 5.39844,-2.39844 5.39844,-5.39844 V 60.199219 C 135.19922,57.398438 132.80078,55 130,55 Z m 0,0"
       id="path500"
       inkscape:connector-curvature="0" />
    <path
       d="m 336.19922,137.39844 c -8.39844,0 -15.39844,-6.79688 -15.39844,-15.39844 V 60.199219 c 0,-8.398438 7,-15.398438 15.59766,-15.199219 8.40234,0 15.20312,6.800781 15.20312,15.199219 V 122 c 0,8.39844 -6.80078,15.39844 -15.40234,15.39844 z m 0,-82.39844 c -3,0 -5.39844,2.398438 -5.39844,5.398438 V 122 c 0,3 2.59766,5.39844 5.39844,5.19922 2.80078,0 5.19922,-2.39844 5.19922,-5.19922 V 60.199219 C 341.60156,57.398438 339.19922,55 336.19922,55 Z m 0,0"
       id="path502"
       inkscape:connector-curvature="0" />
    <path
       d="m 377.80078,137.39844 c -8.40234,0 -15.40234,-6.79688 -15.40234,-15.39844 V 60.199219 c 0,-8.398438 7,-15.398438 15.60156,-15.199219 8.39844,0 15.19922,6.800781 15.19922,15.199219 V 122 c 0,8.39844 -7,15.39844 -15.39844,15.39844 z m 0,-82.39844 c -3,0 -5.40234,2.398438 -5.40234,5.398438 V 122 c 0,3 2.60156,5.39844 5.40234,5.19922 C 380.60156,127.19922 383,124.80078 383,122 V 60.199219 C 383.19922,57.398438 380.80078,55 377.80078,55 Z m 0,0"
       id="path504"
       inkscape:connector-curvature="0" />
    <path
       d="M 419.39844,137.39844 C 411,137.39844 404,130.60156 404,122 V 60.199219 C 404,51.800781 411,44.800781 419.60156,45 428,45 434.80078,51.800781 434.80078,60.199219 V 122 c -0.19922,8.39844 -7,15.39844 -15.40234,15.39844 z m 0,-82.39844 C 416.39844,55 414,57.398438 414,60.398438 V 122 c 0,3 2.60156,5.39844 5.39844,5.19922 2.80078,0 5.20312,-2.39844 5.20312,-5.19922 V 60.199219 C 424.60156,57.398438 422.19922,55 419.39844,55 Z m 0,0"
       id="path506"
       inkscape:connector-curvature="0" />
    <path
       d="M 450,195.80078 H 17.199219 C 7.601562,195.80078 0,188 0,178.60156 V 103.39844 C 0,93.800781 7.800781,86.199219 17.199219,86.199219 h 19.199219 c 2.800781,0 5,2.199219 5,5 V 122 c 0,3 2.402343,5.39844 5.402343,5.39844 3,0 5.398438,-2.39844 5.398438,-5.39844 V 91.199219 c 0,-2.800781 2.199219,-5 5,-5 H 78 c 2.800781,0 5,2.199219 5,5 V 122 c 0,3 2.398438,5.39844 5.199219,5.39844 3,0 5.402343,-2.39844 5.402343,-5.19922 V 122 91.199219 c 0,-2.800781 2.199219,-5 5,-5 h 20.796878 c 2.80078,0 5,2.199219 5,5 V 122 c 0,3 2.40234,5.39844 5.40234,5.39844 3,0 5.39844,-2.39844 5.39844,-5.39844 V 91.199219 c 0,-2.800781 2.19922,-5 5,-5 h 185.60156 c 2.80078,0 5,2.199219 5,5 V 122 c 0,3 2.39844,5.39844 5.19922,5.39844 3,0 5.39844,-2.39844 5.39844,-5.19922 V 122 91.199219 c 0,-2.800781 2.20312,-5 5,-5 h 20.80078 c 2.80078,0 5,2.199219 5,5 V 122 c 0,3 2.40234,5.39844 5.19922,5.39844 3,0 5.40234,-2.39844 5.40234,-5.19922 V 122 91.199219 c 0,-2.800781 2.19922,-5 5,-5 h 20.80078 c 2.79688,0 5,2.199219 5,5 V 122 c 0,3 2.39844,5.39844 5.19922,5.39844 3,0 5.39844,-2.39844 5.39844,-5.19922 V 122 91.199219 c 0,-2.800781 2.19922,-5 5,-5 h 20.40234 c 9.59766,0 17.19922,7.800781 17.19922,17.199221 v 75.20312 c 0.39844,9.59766 -7.19922,17.19922 -16.80078,17.19922 z M 17.199219,96.199219 c -4,0 -7.199219,3.199219 -7.199219,7.199221 v 75.20312 c 0,4 3.199219,7.19922 7.199219,7.19922 H 450 c 4,0 7.19922,-3.19922 7.19922,-7.19922 V 103.39844 C 457.19922,99.398438 454,96.199219 450,96.199219 H 434.60156 V 122 c 0,8.39844 -6.80078,15.39844 -15.20312,15.60156 C 411,137.80078 404,130.80078 403.80078,122.39844 c 0,-0.19922 0,-0.19922 0,-0.39844 V 96.199219 H 393 V 122 c 0,8.39844 -6.80078,15.39844 -15.19922,15.60156 -8.40234,0.19922 -15.40234,-6.80078 -15.60156,-15.20312 0,-0.19922 0,-0.19922 0,-0.39844 V 96.199219 H 351.39844 V 122 c 0,8.39844 -6.79688,15.39844 -15.19922,15.60156 -8.39844,0.19922 -15.39844,-6.80078 -15.59766,-15.20312 0,-0.19922 0,-0.19922 0,-0.39844 V 96.199219 H 145.19922 V 122 c 0,8.39844 -6.80078,15.39844 -15.39844,15.39844 -8.60156,0 -15.40234,-6.79688 -15.40234,-15.39844 V 96.199219 H 103.80078 V 122 c 0,8.39844 -6.80078,15.39844 -15.199218,15.60156 C 80.199219,137.80078 73.199219,130.80078 73,122.39844 73,122.19922 73,122.19922 73,122 V 96.199219 H 62.199219 V 122 c 0,8.39844 -6.800781,15.39844 -15.398438,15.39844 -8.402343,0 -15.402343,-6.79688 -15.402343,-15.39844 V 96.199219 Z m 0,0"
       id="path508"
       inkscape:connector-curvature="0" />
    <path
       d="M 288.60156,146 H 178.80078 c -2.80078,0 -5,-2.19922 -5,-5 0,-2.80078 2.19922,-5 5,-5 h 109.80078 c 2.79688,0 5,2.19922 5,5 0,2.80078 -2.20312,5 -5,5 z m 0,0"
       id="path510"
       inkscape:connector-curvature="0" />
    <path
       d="M 213.80078,276.80078 H 191.19922 C 183.39844,276.80078 177,270.39844 177,262.60156 V 240 c 0,-7.80078 6.39844,-14.19922 14.19922,-14.19922 h 22.60156 C 221.60156,225.80078 228,232.19922 228,240 v 22.60156 c -0.19922,7.79688 -6.39844,14.19922 -14.19922,14.19922 z M 191.19922,236 C 189,236 187,237.80078 187,240.19922 v 22.60156 C 187,265 188.80078,267 191.19922,267 h 22.60156 C 216,267 218,265.19922 218,262.80078 V 240.19922 C 218,238 216.19922,236 213.80078,236 Z m 0,0"
       id="path512"
       inkscape:connector-curvature="0" />
    <path
       d="m 275,276.80078 h -22.60156 c -7.79688,0 -14.19922,-6.40234 -14.19922,-14.19922 V 240 c 0,-7.80078 6.40234,-14.19922 14.19922,-14.19922 H 275 c 7.80078,0 14.19922,6.39844 14.19922,14.19922 v 22.60156 c 0,7.79688 -6.39844,14.19922 -14.19922,14.19922 z M 252.39844,236 c -2.19922,0 -4.19922,1.80078 -4.19922,4.19922 v 22.60156 C 248.19922,265 250,267 252.39844,267 H 275 c 2.19922,0 4.19922,-1.80078 4.19922,-4.19922 V 240.19922 C 279.19922,238 277.39844,236 275,236 Z m 0,0"
       id="path514"
       inkscape:connector-curvature="0" />
    <path
       d="m 336.39844,276.80078 h -22.59766 c -7.80078,0 -14.19922,-6.40234 -14.19922,-14.19922 V 240 c 0,-7.80078 6.39844,-14.19922 14.19922,-14.19922 h 22.59766 c 7.80078,0 14.20312,6.39844 14.20312,14.19922 v 22.60156 c -0.20312,8 -6.40234,14.19922 -14.20312,14.19922 z M 313.80078,236 c -2.19922,0 -4.19922,1.80078 -4.19922,4.19922 v 22.60156 c 0,2.19922 1.79688,4.19922 4.19922,4.19922 h 22.59766 c 2.20312,0 4.20312,-1.80078 4.20312,-4.19922 V 240.19922 C 340.60156,238 338.80078,236 336.39844,236 Z m 0,0"
       id="path516"
       inkscape:connector-curvature="0" />
    <path
       d="M 91.199219,338.19922 H 68.601562 c -7.800781,0 -14.203124,-6.39844 -14.203124,-14.19922 v -22.60156 c 0,-7.79688 6.402343,-14.19922 14.203124,-14.19922 h 22.597657 c 7.800781,0 14.199221,6.40234 14.199221,14.19922 V 324 C 105.19922,331.80078 99,338.19922 91.199219,338.19922 Z m -22.597657,-41 c -2.203124,0 -4.203124,1.80078 -4.203124,4.19922 V 324 c 0,2.19922 1.800781,4.19922 4.203124,4.19922 h 22.597657 c 2.199219,0 4.199219,-1.80078 4.199219,-4.19922 v -22.60156 c 0,-2.19922 -1.796876,-4.19922 -4.199219,-4.19922 z m 0,0"
       id="path518"
       inkscape:connector-curvature="0" />
    <path
       d="M 152.39844,338.19922 H 129.80078 C 122,338.19922 115.60156,331.80078 115.60156,324 v -22.60156 c 0,-7.79688 6.39844,-14.19922 14.19922,-14.19922 h 22.59766 c 7.80078,0 14.20312,6.40234 14.20312,14.19922 V 324 c 0,7.80078 -6.40234,14.19922 -14.20312,14.19922 z m -22.59766,-41 c -2.19922,0 -4.19922,1.80078 -4.19922,4.19922 V 324 c 0,2.19922 1.79688,4.19922 4.19922,4.19922 h 22.59766 c 2.20312,0 4.20312,-1.80078 4.20312,-4.19922 v -22.60156 c 0,-2.19922 -1.80078,-4.19922 -4.20312,-4.19922 z m 0,0"
       id="path520"
       inkscape:connector-curvature="0" />
    <path
       d="M 213.80078,338.19922 H 191.19922 C 183.39844,338.19922 177,331.80078 177,324 v -22.60156 c 0,-7.79688 6.39844,-14.19922 14.19922,-14.19922 h 22.60156 c 7.80078,0 14.19922,6.40234 14.19922,14.19922 V 324 c -0.19922,7.80078 -6.39844,14.19922 -14.19922,14.19922 z m -22.60156,-41 C 189,297.19922 187,299 187,301.39844 V 324 c 0,2.19922 1.80078,4.19922 4.19922,4.19922 h 22.60156 C 216,328.19922 218,326.39844 218,324 v -22.60156 c 0,-2.19922 -1.80078,-4.19922 -4.19922,-4.19922 z m 0,0"
       id="path522"
       inkscape:connector-curvature="0" />
    <path
       d="M 91.199219,399.39844 H 68.601562 c -7.800781,0 -14.203124,-6.39844 -14.203124,-14.19922 v -22.59766 c 0,-7.80078 6.402343,-14.20312 14.203124,-14.20312 h 22.597657 c 7.800781,0 14.199221,6.40234 14.199221,14.20312 v 22.59766 c -0.19922,8 -6.39844,14.19922 -14.199221,14.19922 z M 68.601562,358.60156 c -2.203124,0 -4.203124,1.79688 -4.203124,4.19922 v 22.59766 c 0,2.20312 1.800781,4.20312 4.203124,4.20312 h 22.597657 c 2.199219,0 4.199219,-1.80078 4.199219,-4.20312 v -22.59766 c 0,-2.19922 -1.796876,-4.19922 -4.199219,-4.19922 z m 0,0"
       id="path524"
       inkscape:connector-curvature="0" />
    <path
       d="M 152.39844,399.39844 H 129.80078 C 122,399.39844 115.60156,393 115.60156,385.19922 v -22.59766 c 0,-7.80078 6.39844,-14.20312 14.19922,-14.20312 h 22.59766 c 7.80078,0 14.20312,6.40234 14.20312,14.20312 v 22.59766 c 0,8 -6.40234,14.19922 -14.20312,14.19922 z m -22.59766,-40.79688 c -2.19922,0 -4.19922,1.79688 -4.19922,4.19922 v 22.59766 c 0,2.20312 1.79688,4.20312 4.19922,4.20312 h 22.59766 c 2.20312,0 4.20312,-1.80078 4.20312,-4.20312 v -22.59766 c 0,-2.19922 -1.80078,-4.19922 -4.20312,-4.19922 z m 0,0"
       id="path526"
       inkscape:connector-curvature="0" />
    <path
       d="M 213.80078,399.39844 H 191.19922 C 183.39844,399.39844 177,393 177,385.19922 v -22.59766 c 0,-7.80078 6.39844,-14.20312 14.19922,-14.20312 h 22.60156 c 7.80078,0 14.19922,6.40234 14.19922,14.20312 v 22.59766 c -0.19922,8 -6.39844,14.19922 -14.19922,14.19922 z M 191.19922,358.60156 C 189,358.60156 187,360.39844 187,362.80078 v 22.59766 c 0,2.20312 1.80078,4.20312 4.19922,4.20312 h 22.60156 C 216,389.60156 218,387.80078 218,385.39844 v -22.59766 c 0,-2.19922 -1.80078,-4.19922 -4.19922,-4.19922 z m 0,0"
       id="path528"
       inkscape:connector-curvature="0" />
    <path
       d="M 91.199219,460.80078 H 68.601562 c -7.800781,0 -14.203124,-6.40234 -14.203124,-14.19922 V 424 c 0,-7.80078 6.402343,-14.19922 14.203124,-14.19922 H 91.199219 C 99,409.80078 105.39844,416.19922 105.39844,424 v 22.60156 C 105.19922,454.39844 99,460.80078 91.199219,460.80078 Z m -22.597657,-41 c -2.203124,0 -4.203124,1.80078 -4.203124,4.19922 v 22.60156 c 0,2.19922 1.800781,4.19922 4.203124,4.19922 h 22.597657 c 2.199219,0 4.199219,-1.80078 4.199219,-4.19922 V 424 c 0,-2.19922 -1.796876,-4.19922 -4.199219,-4.19922 z m 0,0"
       id="path530"
       inkscape:connector-curvature="0" />
    <path
       d="m 152.39844,460.80078 h -22.59766 c -7.80078,0 -14.19922,-6.40234 -14.19922,-14.19922 V 424 c 0,-7.80078 6.39844,-14.19922 14.19922,-14.19922 h 22.59766 c 7.80078,0 14.20312,6.39844 14.20312,14.19922 v 22.60156 c 0,7.79688 -6.40234,14.19922 -14.20312,14.19922 z m -22.59766,-41 c -2.19922,0 -4.19922,1.80078 -4.19922,4.19922 v 22.60156 c 0,2.19922 1.79688,4.19922 4.19922,4.19922 h 22.59766 c 2.20312,0 4.20312,-1.80078 4.20312,-4.19922 V 424 c 0,-2.19922 -1.80078,-4.19922 -4.20312,-4.19922 z m 0,0"
       id="path532"
       inkscape:connector-curvature="0" />
    <path
       d="M 213.80078,460.80078 H 191.19922 C 183.39844,460.80078 177,454.39844 177,446.60156 V 424 c 0,-7.80078 6.39844,-14.19922 14.19922,-14.19922 h 22.60156 C 221.60156,409.80078 228,416.19922 228,424 v 22.60156 c -0.19922,7.79688 -6.39844,14.19922 -14.19922,14.19922 z m -22.60156,-41 C 189,419.80078 187,421.60156 187,424 v 22.60156 c 0,2.19922 1.80078,4.19922 4.19922,4.19922 h 22.60156 C 216,450.80078 218,449 218,446.60156 V 424 c 0,-2.19922 -1.80078,-4.19922 -4.19922,-4.19922 z m 0,0"
       id="path534"
       inkscape:connector-curvature="0" />
    <path
       d="M 397.60156,276.80078 H 375 c -7.80078,0 -14.19922,-6.40234 -14.19922,-14.19922 V 240 c 0,-7.80078 6.39844,-14.19922 14.19922,-14.19922 h 22.60156 c 7.79688,0 14.19922,6.39844 14.19922,14.19922 v 22.60156 c 0,7.79688 -6.40234,14.19922 -14.19922,14.19922 z M 375,236 c -2.19922,0 -4.19922,1.80078 -4.19922,4.19922 v 22.60156 C 370.80078,265 372.60156,267 375,267 h 22.60156 c 2.19922,0 4.19922,-1.80078 4.19922,-4.19922 V 240.19922 C 401.80078,238 400,236 397.60156,236 Z m 0,0"
       id="path536"
       inkscape:connector-curvature="0" />
    <path
       d="m 272.19922,338.19922 h -19.80078 c -7.79688,0 -14.19922,-6.39844 -14.19922,-14.19922 v -22.60156 c 0,-7.79688 6.40234,-14.19922 14.19922,-14.19922 H 275 c 7.80078,0 14.19922,6.40234 14.19922,14.19922 v 17.20312 c 0,1.39844 -0.59766,2.59766 -1.39844,3.39844 -4.19922,4.39844 -8,9 -11.40234,14 -1,1.39844 -2.59766,2.19922 -4.19922,2.19922 z m -19.80078,-41 c -2.19922,0 -4.19922,1.80078 -4.19922,4.19922 V 324 c 0,2.19922 1.80078,4.19922 4.19922,4.19922 h 17.20312 c 3,-4 6.19922,-8 9.59766,-11.59766 v -15.20312 c 0,-2.19922 -1.80078,-4.19922 -4.19922,-4.19922 z m 31.80078,21.40234"
       id="path538"
       inkscape:connector-curvature="0" />
    <path
       d="M 363.60156,512 H 27.398438 c -9.597657,0 -17.199219,-7.80078 -17.199219,-17.19922 v -304 c 0,-2.80078 2.199219,-5 5,-5 H 452.19922 c 2.80078,0 5,2.19922 5,5 V 329 c 0,2.80078 -2.19922,5 -5,5 -1.59766,0 -3,-0.80078 -4,-2 -35.39844,-46.60156 -101.80078,-56 -148.39844,-20.60156 -46.60156,35.40234 -56,101.80078 -20.60156,148.40234 20,26.39844 51.40234,42 84.60156,42 2.80078,0 5,2.19922 5,5 0,2.80078 -2.40234,5.19922 -5.19922,5.19922 z M 20.199219,195.80078 v 299 c 0,4 3.199219,7.19922 7.199219,7.19922 H 316.60156 C 258,476 231.60156,407.39844 257.80078,348.80078 276.39844,307 318,280 363.80078,280 c 31.59766,-0.19922 61.80078,12.80078 83.59766,35.39844 V 195.80078 Z m 0,0"
       id="path540"
       inkscape:connector-curvature="0" />
    <path
       d="m 363.60156,389.60156 c -2.80078,0 -5,-2.20312 -5,-5 v -55 c 0,-2.80078 2.19922,-5 5,-5 2.79688,0 5,2.19922 5,5 v 55 c 0,2.79688 -2.20312,5 -5,5 z m 0,0"
       id="path542"
       inkscape:connector-curvature="0" />
    <path
       d="m 325.19922,433.60156 c -2.80078,0 -5,-2.20312 -5,-5 0,-1.40234 0.60156,-2.80078 1.80078,-3.80078 l 31,-26 c 2.19922,-1.80078 5.19922,-1.40234 7,0.59766 1.80078,2.20312 1.39844,5.20312 -0.60156,7 l -31,26 c -1,0.80078 -2,1.20312 -3.19922,1.20312 z m 0,0"
       id="path544"
       inkscape:connector-curvature="0" />
    <path
       d="m 319.39844,267 c -1.39844,0 -2.79688,-0.60156 -3.59766,-1.60156 l -8.40234,-9.19922 c -1.79688,-2 -1.79688,-5.19922 0.40234,-7 2,-1.80078 5.19922,-1.80078 7,0.40234 l 5,5.39844 15.59766,-15.60156 c 2,-2 5.20312,-1.79688 7,0.20312 1.80078,2 1.80078,5 0,7 l -19.19922,19.19922 C 322,266.39844 320.80078,267 319.39844,267 Z m 0,0"
       id="path546"
       inkscape:connector-curvature="0" />
    <path
       d="m 381.39844,267 c -1.39844,0 -2.79688,-0.60156 -3.59766,-1.60156 l -8.40234,-9.19922 c -1.79688,-2 -1.79688,-5.19922 0.40234,-7 2,-1.80078 5.19922,-1.80078 7,0.40234 l 5,5.39844 15.59766,-15.60156 c 2,-2 5.20312,-1.79688 7,0.20312 1.80078,2 1.80078,5 0,7 l -19.19922,19.19922 C 384,266.39844 382.80078,267 381.39844,267 Z m 0,0"
       id="path548"
       inkscape:connector-curvature="0" />
    <path
       d="M 75.398438,327 C 74,327 72.601562,326.39844 71.800781,325.39844 l -8.402343,-9.19922 c -1.796876,-2 -1.796876,-5.19922 0.402343,-7 2,-1.80078 5.199219,-1.80078 7,0.40234 l 5,5.39844 15.597657,-15.60156 c 2,-2 5,-2 7,-0.19922 2.000002,2 2.000002,5 0.203124,7 0,0 0,0 -0.203124,0.19922 L 79.199219,325.60156 C 78,326.39844 76.800781,327 75.398438,327 Z m 0,0"
       id="path550"
       inkscape:connector-curvature="0" />
    <path
       d="m 135.39844,327 c -1.39844,0 -2.79688,-0.60156 -3.59766,-1.60156 l -8.40234,-9.19922 c -1.79688,-2 -1.79688,-5.19922 0.40234,-7 2,-1.80078 5.19922,-1.80078 7,0.40234 l 5,5.39844 15.59766,-15.60156 c 2,-2 5,-2 7,-0.19922 2,1.80078 2,5 0.20312,7 0,0 0,0 -0.20312,0.19922 l -19.19922,19.20312 C 138,326.39844 136.80078,327 135.39844,327 Z m 0,0"
       id="path552"
       inkscape:connector-curvature="0" />
    <path
       d="m 197.39844,327 c -1.39844,0 -2.79688,-0.60156 -3.59766,-1.60156 l -8.40234,-9.19922 c -1.79688,-2 -1.79688,-5.19922 0.40234,-7 2,-1.80078 5.19922,-1.80078 7,0.40234 l 5,5.39844 15.59766,-15.60156 c 2,-2 5,-2 7,-0.19922 2,1.80078 2,5 0.20312,7 0,0 0,0 -0.20312,0.19922 l -19.19922,19.20312 C 200,326.39844 198.80078,327 197.39844,327 Z m 0,0"
       id="path554"
       inkscape:connector-curvature="0" />
    <path
       d="m 363.60156,512 c -64,0 -116,-52 -116,-116 0,-64 52,-116 116,-116 64,0 116,52 116,116 0,64 -52,116 -116,116 z m 0,-222 c -58.60156,0 -106,47.39844 -106,106 0,58.60156 47.39844,106 106,106 58.59766,0 106,-47.39844 106,-106 0,-58.60156 -47.40234,-106 -106,-106 z m 0,0"
       id="path556"
       inkscape:connector-curvature="0" />
    <path
       d="m 363.60156,487 c -50.20312,0 -91,-40.80078 -91,-91 0,-50.19922 40.79688,-91 91,-91 50.19922,0 91,40.80078 91,91 0,50.19922 -40.80078,91 -91,91 z m 0,-172 c -44.80078,0 -81,36.19922 -81,81 0,44.80078 36.19922,81 81,81 44.79688,0 81,-36.19922 81,-81 0,-44.80078 -36.20312,-81 -81,-81 z m 0,0"
       id="path558"
       inkscape:connector-curvature="0" />
    <path
       d="m 363.60156,411 c -8.20312,0 -15,-6.80078 -15,-15 0,-8.19922 6.79688,-15 15,-15 8.19922,0 15,6.80078 15,15 0,8.19922 -6.60156,15 -15,15 z m 0,-20 c -2.80078,0 -5,2.19922 -5,5 0,2.80078 2.19922,5 5,5 2.79688,0 5,-2.19922 5,-5 0,-2.80078 -2.20312,-5 -5,-5 z m 0,0"
       id="path560"
       inkscape:connector-curvature="0" />
  </g>
</svg>
