<?xml version="1.0" encoding="UTF-8" standalone="no"?>
<!-- Created with Inkscape (http://www.inkscape.org/) -->

<svg
   xmlns:dc="http://purl.org/dc/elements/1.1/"
   xmlns:cc="http://creativecommons.org/ns#"
   xmlns:rdf="http://www.w3.org/1999/02/22-rdf-syntax-ns#"
   xmlns:svg="http://www.w3.org/2000/svg"
   xmlns="http://www.w3.org/2000/svg"
   xmlns:sodipodi="http://sodipodi.sourceforge.net/DTD/sodipodi-0.dtd"
   xmlns:inkscape="http://www.inkscape.org/namespaces/inkscape"
   width="512"
   height="256"
   viewBox="0 0 135.46666 67.733331"
   version="1.1"
   id="svg8"
   inkscape:version="0.92.5 (2060ec1f9f, 2020-04-08)"
   sodipodi:docname="logo-nav.svg">
  <defs
     id="defs2" />
  <sodipodi:namedview
     id="base"
     pagecolor="#ffffff"
     bordercolor="#666666"
     borderopacity="1.0"
     inkscape:pageopacity="0"
     inkscape:pageshadow="2"
     inkscape:zoom="1.4"
     inkscape:cx="329.29679"
     inkscape:cy="88.60029"
     inkscape:document-units="px"
     inkscape:current-layer="g268"
     showgrid="false"
     units="px"
     width="512mm"
     inkscape:pagecheckerboard="false"
     inkscape:window-width="1920"
     inkscape:window-height="1020"
     inkscape:window-x="0"
     inkscape:window-y="0"
     inkscape:window-maximized="1" />
  <metadata
     id="metadata5">
    <rdf:RDF>
      <cc:Work
         rdf:about="">
        <dc:format>image/svg+xml</dc:format>
        <dc:type
           rdf:resource="http://purl.org/dc/dcmitype/StillImage" />
        <dc:title />
      </cc:Work>
    </rdf:RDF>
  </metadata>
  <g
     inkscape:label="Camada 1"
     inkscape:groupmode="layer"
     id="layer1"
     transform="translate(0,-229.26665)">
    <text
       xml:space="preserve"
       style="font-style:normal;font-variant:normal;font-weight:normal;font-stretch:normal;font-size:37.43664169px;line-height:1.25;font-family:sans-serif;-inkscape-font-specification:sans-serif;letter-spacing:0px;word-spacing:0px;fill:#000000;fill-opacity:1;stroke:none;stroke-width:0.93591595"
       x="-2.3297772"
       y="261.02991"
       id="text12"><tspan
         sodipodi:role="line"
         id="tspan10"
         x="-2.3297772"
         y="261.02991"
         style="font-style:normal;font-variant:normal;font-weight:500;font-stretch:normal;font-family:Ubuntu;-inkscape-font-specification:'Ubuntu Medium';stroke-width:0.93591595">Hora</tspan></text>
    <text
       xml:space="preserve"
       style="font-style:normal;font-variant:normal;font-weight:normal;font-stretch:normal;font-size:15.18926907px;line-height:1.25;font-family:sans-serif;-inkscape-font-specification:sans-serif;letter-spacing:0px;word-spacing:0px;fill:#000000;fill-opacity:1;stroke:none;stroke-width:0.37973174"
       x="26.656532"
       y="274.12665"
       id="text16"><tspan
         sodipodi:role="line"
         x="26.656532"
         y="274.12665"
         style="font-style:normal;font-variant:normal;font-weight:500;font-stretch:normal;font-family:Ubuntu;-inkscape-font-specification:'Ubuntu Medium';stroke-width:0.37973174"
         id="tspan18">na</tspan></text>
    <text
       xml:space="preserve"
       style="font-style:normal;font-variant:normal;font-weight:normal;font-stretch:normal;font-size:26.30998421px;line-height:1.25;font-family:sans-serif;-inkscape-font-specification:sans-serif;letter-spacing:0px;word-spacing:0px;fill:#000000;fill-opacity:1;stroke:none;stroke-width:0.65774953"
       x="43.382511"
       y="285.10394"
       id="text24"><tspan
         sodipodi:role="line"
         id="tspan22"
         x="43.382511"
         y="285.10394"
         style="font-style:normal;font-variant:normal;font-weight:500;font-stretch:normal;font-family:Ubuntu;-inkscape-font-specification:'Ubuntu Medium';stroke-width:0.65774953">Agenda</tspan></text>
    <g
       style="fill:currentColor"
       id="g40"
       transform="matrix(0.99547677,0,0,0.99547677,13.78394,268.63229)">
      <path
         id="path26"
         d="m 22.47377,-21.870917 a 0.42682359,0.42682359 0 0 0 -0.853647,0 v 4.695059 a 0.42682359,0.42682359 0 0 0 0.215119,0.370483 l 2.987765,1.707294 a 0.42682359,0.42682359 0 0 0 0.423409,-0.740965 l -2.772646,-1.58437 z"
         inkscape:connector-curvature="0"
         style="stroke-width:0.85364717" />
    </g>
    <g
       id="g268"
       transform="matrix(0.07695058,0,0,0.07695058,48.829205,225.77667)">
      <path
         id="path74"
         d="m 835.41319,88.090499 -15.83239,4.99597 7.61811,24.142021 c 1.43474,4.54672 -1.03486,9.28855 -5.37213,10.83225 -4.34129,1.54161 -9.2916,-1.0339 -10.83321,-5.37519 l -0.0493,-0.15615 -7.66738,-24.298171 -16.3039,5.144761 7.61811,24.14201 c 1.43473,4.54673 -1.0318,9.28759 -5.37213,10.83226 -4.34129,1.5416 -9.28854,-1.03487 -10.83321,-5.3752 l -0.0492,-0.15615 -7.66738,-24.29817 -16.30084,5.14379 7.6181,24.14203 c 1.43474,4.54672 -1.03486,9.28854 -5.37519,10.83321 -4.33823,1.54064 -9.28854,-1.03486 -10.83015,-5.37615 l -0.0492,-0.15616 -7.66738,-24.29817 -145.47668,45.90572 7.61811,24.14202 c 1.43474,4.54672 -1.0318,9.28758 -5.57852,10.72231 -4.54671,1.43474 -9.29064,-1.03084 -10.72537,-5.57755 l -7.61811,-24.14202 -16.14468,5.09451 7.6181,24.14203 c 1.43474,4.54672 -1.03485,9.28854 -5.58158,10.72328 -4.54365,1.43376 -9.28757,-1.03181 -10.72231,-5.57852 l -7.61811,-24.14203 -16.30389,5.14476 7.61811,24.14202 c 1.43473,4.54672 -1.0318,9.28757 -5.57853,10.72231 -4.54672,1.43474 -9.29063,-1.03083 -10.72537,-5.57756 l -7.61811,-24.14202 -15.04857,4.74864 c -5.33053,1.68207 -8.2257,7.25172 -6.54459,12.57919 l 18.6003,58.94509 c 1.6811,5.32747 7.24865,8.22666 12.57919,6.54459 l 339.2343,-107.04668 c 5.33052,-1.68207 8.2257,-7.25171 6.54459,-12.57918 L 847.99245,94.635109 c -1.6811,-5.32747 -7.24865,-8.22668 -12.57918,-6.54461 z m 0,0"
         inkscape:connector-curvature="0"
         style="fill:#ea4647;stroke-width:0.82190949" />
      <path
         id="path76"
         d="m 756.07782,375.82042 c -15.18597,-48.12482 11.57722,-99.3196 59.54894,-114.45725 27.27421,-8.60648 56.99047,-4.02212 80.32661,12.57442 L 861.7719,165.61544 519.2462,273.70073 594.43597,511.97948 c 1.68207,5.33053 7.25172,8.2257 12.57918,6.54459 l 263.51993,-83.15472 c -47.97172,15.13766 -99.27129,-11.42412 -114.45726,-59.54893 z m 0,0"
         inkscape:connector-curvature="0"
         style="fill:#e9e9ea;stroke-width:0.82190949" />
      <path
         id="path78"
         d="m 930.08401,320.9121 c 15.16279,48.05133 -11.50067,99.29544 -59.54893,114.45725 -48.05133,15.16279 -99.29447,-11.4976 -114.45726,-59.54893 -15.16278,-48.05133 11.49761,-99.29447 59.54894,-114.45725 48.04826,-15.16182 99.29448,11.4976 114.45725,59.54893 z m 0,0"
         inkscape:connector-curvature="0"
         style="fill:#55acd5;stroke-width:0.82190949" />
      <path
         id="path80"
         d="m 910.48872,327.09547 c 11.74744,37.22799 -8.90901,76.93115 -46.13701,88.67859 -37.23105,11.7484 -76.93116,-8.90902 -88.67859,-46.13701 -11.74744,-37.22799 8.90595,-76.93019 46.13701,-88.67859 37.228,-11.74744 76.93116,8.90902 88.67859,46.13701 z m 0,0"
         inkscape:connector-curvature="0"
         style="fill:#ffcd29;stroke-width:0.82190949" />
      <path
         id="path82"
         d="m 850.91904,345.89291 c 1.36613,4.32934 -1.0385,8.94629 -5.36477,10.31147 -4.32933,1.36614 -8.94533,-1.03543 -10.31146,-5.36478 -1.36615,-4.32933 1.03542,-8.94532 5.36476,-10.31146 4.32627,-1.36517 8.94533,1.03543 10.31147,5.36477 z m 0,0"
         inkscape:connector-curvature="0"
         style="fill:#e9e9ea;stroke-width:0.82190949" />
      <path
         id="path84"
         d="m 509.19094,155.52327 c 4.54673,-1.43474 9.28855,1.03486 10.72231,5.57852 l 15.23621,48.28403 c 1.43474,4.54672 -1.03179,9.28757 -5.57852,10.72231 -4.54672,1.43474 -9.29063,-1.03083 -10.72537,-5.57756 l -15.28548,-48.44018 c -1.3845,-4.38751 1.24028,-9.18166 5.63085,-10.56712 z m 0,0"
         inkscape:connector-curvature="0"
         style="fill:#e9e9ea;stroke-width:0.82190949" />
      <path
         id="path86"
         d="m 541.79567,145.23472 c 4.54672,-1.43473 9.29161,1.0339 10.72537,5.57756 l 15.23621,48.28403 c 1.43474,4.54672 -1.03486,9.28854 -5.58158,10.72328 -4.54365,1.43376 -9.28757,-1.03181 -10.72232,-5.57852 l -15.28547,-48.44019 c -1.3845,-4.38751 1.08414,-9.13239 5.62779,-10.56616 z m 0,0"
         inkscape:connector-curvature="0"
         style="fill:#e9e9ea;stroke-width:0.82190949" />
      <path
         id="path88"
         d="m 574.40346,134.94521 c 4.54672,-1.43474 9.28855,1.03486 10.72231,5.57852 l 15.23621,48.28403 c 1.43474,4.54672 -1.0318,9.28758 -5.57852,10.72231 -4.54672,1.43473 -9.28758,-1.0318 -10.72232,-5.57852 l -15.28548,-48.44018 c -1.38449,-4.3875 1.08108,-9.13143 5.6278,-10.56616 z m 0,0"
         inkscape:connector-curvature="0"
         style="fill:#e9e9ea;stroke-width:0.82190949" />
      <path
         id="path90"
         d="m 736.02481,83.944969 c 4.54672,-1.43474 9.29161,1.0339 10.72538,5.57755 l 15.2362,48.284041 c 1.43474,4.54672 -1.03486,9.28854 -5.58158,10.72328 -4.54672,1.43473 -9.28757,-1.03181 -10.72231,-5.57852 L 730.39702,94.511129 c -1.38449,-4.38751 1.24028,-9.18167 5.62779,-10.56616 z m 0,0"
         inkscape:connector-curvature="0"
         style="fill:#e9e9ea;stroke-width:0.82190949" />
      <path
         id="path92"
         d="m 768.6326,73.655459 c 4.54672,-1.43474 9.28855,1.03486 10.72232,5.57852 l 15.2362,48.284021 c 1.43474,4.54673 -1.0318,9.28759 -5.57852,10.72232 -4.54672,1.43473 -9.29063,-1.03084 -10.72537,-5.57756 L 763.00175,84.222579 c -1.38449,-4.38751 1.08414,-9.13239 5.63085,-10.56712 z m 0,0"
         inkscape:connector-curvature="0"
         style="fill:#e9e9ea;stroke-width:0.82190949" />
      <path
         id="path94"
         d="m 801.23733,63.366909 c 4.54672,-1.43474 9.2916,1.0339 10.72538,5.57755 l 15.2362,48.284031 c 1.43474,4.54672 -1.03486,9.28855 -5.58158,10.72328 -4.54366,1.43377 -9.28758,-1.0318 -10.72231,-5.57852 L 795.60953,73.933069 c -1.38449,-4.38751 1.08414,-9.13239 5.6278,-10.56616 z m 0,0"
         inkscape:connector-curvature="0"
         style="fill:#e9e9ea;stroke-width:0.82190949" />
      <path
         id="path96"
         d="m 667.13972,261.67843 17.71536,-5.59016 c 3.91907,-1.23666 8.1998,0.85997 9.48574,4.93518 l 5.59016,17.71536 c 1.23667,3.91906 -0.85996,8.1998 -4.93517,9.48575 l -17.71537,5.59015 c -3.91905,1.23667 -8.19979,-0.85996 -9.48574,-4.93517 l -5.59015,-17.71537 c -1.28595,-4.0752 0.85996,-8.19979 4.93517,-9.48574 z m 0,0"
         inkscape:connector-curvature="0"
         style="fill:#acdef9;stroke-width:0.82190949" />
      <path
         id="path98"
         d="m 715.10838,246.54173 17.71536,-5.59015 c 3.91907,-1.23667 8.1998,0.85996 9.48575,4.93517 l 5.59015,17.71536 c 1.23667,3.91907 -0.85996,8.1998 -4.93517,9.48575 l -17.71536,5.59015 c -3.91906,1.23667 -8.1998,-0.85996 -9.48575,-4.93517 l -5.59015,-17.71536 c -1.28594,-4.07521 1.01611,-8.24907 4.93517,-9.48575 z m 0,0"
         inkscape:connector-curvature="0"
         style="fill:#acdef9;stroke-width:0.82190949" />
      <path
         id="path100"
         d="m 763.23625,231.3548 17.71231,-5.58919 c 3.91906,-1.23667 8.20285,0.859 9.4888,4.93421 l 5.59015,17.71536 c 1.23668,3.91906 -0.85996,8.1998 -4.93822,9.48671 l -17.71232,5.58919 c -3.91905,1.23667 -8.19979,-0.85996 -9.48574,-4.93517 l -5.59015,-17.71536 c -1.28595,-4.07522 0.85997,-8.1998 4.93517,-9.48575 z m 0,0"
         inkscape:connector-curvature="0"
         style="fill:#6dcc6d;stroke-width:0.82190949" />
      <path
         id="path102"
         d="m 586.18294,339.96975 17.71231,-5.58918 c 3.91905,-1.23668 8.1998,0.85996 9.48574,4.93516 l 5.59015,17.71538 c 1.23668,3.91905 -0.85996,8.19979 -4.93516,9.48574 l -17.71231,5.58919 c -3.91906,1.23667 -8.20286,-0.859 -9.4888,-4.93421 l -5.59016,-17.71537 c -1.23667,-3.91905 0.85996,-8.19979 4.93823,-9.48671 z m 0,0"
         inkscape:connector-curvature="0"
         style="fill:#6dcc6d;stroke-width:0.82190949" />
      <path
         id="path104"
         d="m 634.1516,324.83306 17.71231,-5.58919 c 3.91906,-1.23667 8.20285,0.859 9.4888,4.93421 l 5.59015,17.71537 c 1.23668,3.91905 -0.85996,8.19979 -4.93822,9.4867 l -17.71232,5.58919 c -3.91905,1.23667 -8.19979,-0.85996 -9.48574,-4.93517 l -5.59015,-17.71537 c -1.23668,-3.91906 1.01611,-8.24907 4.93517,-9.48574 z m 0,0"
         inkscape:connector-curvature="0"
         style="fill:#6dcc6d;stroke-width:0.82190949" />
      <path
         id="path106"
         d="m 682.27641,309.64709 17.71537,-5.59015 c 3.91905,-1.23667 8.1998,0.85996 9.48574,4.93517 l 5.59015,17.71537 c 1.23668,3.91905 -0.85995,8.19979 -4.93516,9.48574 l -17.71537,5.59015 c -3.91906,1.23668 -8.1998,-0.85996 -9.48574,-4.93517 l -5.59015,-17.71537 c -1.23668,-3.91906 0.85995,-8.19979 4.93516,-9.48574 z m 0,0"
         inkscape:connector-curvature="0"
         style="fill:#6dcc6d;stroke-width:0.82190949" />
      <path
         id="path108"
         d="m 601.36988,388.09762 17.7123,-5.58918 c 3.91906,-1.23668 8.1998,0.85996 9.48574,4.93517 l 5.58919,17.71231 c 1.23668,3.91905 -0.85899,8.20285 -4.9342,9.4888 l -17.71231,5.58918 c -3.91905,1.23668 -8.20285,-0.85899 -9.48977,-4.93726 l -5.58919,-17.71231 c -1.28595,-4.0752 0.85997,-8.19979 4.93824,-9.48671 z m 0,0"
         inkscape:connector-curvature="0"
         style="fill:#acdef9;stroke-width:0.82190949" />
      <path
         id="path110"
         d="m 649.33853,372.96093 17.71231,-5.58918 c 3.91906,-1.23668 8.20285,0.85899 9.48881,4.9342 l 5.58918,17.7123 c 1.23668,3.91907 -0.859,8.20286 -4.93726,9.48977 l -17.71231,5.58919 c -3.91906,1.23667 -8.19979,-0.85996 -9.48671,-4.93823 l -5.58919,-17.7123 c -1.28594,-4.07521 1.01611,-8.24907 4.93517,-9.48575 z m 0,0"
         inkscape:connector-curvature="0"
         style="fill:#acdef9;stroke-width:0.82190949" />
      <path
         id="path112"
         d="m 697.46335,357.77496 17.71536,-5.59015 c 3.91906,-1.23667 8.1998,0.85996 9.48575,4.93517 l 5.58918,17.7123 c 1.23668,3.91907 -0.85899,8.20286 -4.9342,9.48881 l -17.71536,5.59015 c -3.91907,1.23667 -8.1998,-0.85996 -9.48671,-4.93823 l -5.58919,-17.7123 c -1.28595,-4.07521 0.85996,-8.1998 4.93517,-9.48575 z m 0,0"
         inkscape:connector-curvature="0"
         style="fill:#acdef9;stroke-width:0.82190949" />
      <path
         id="path114"
         d="m 616.50657,436.06628 17.71231,-5.58918 c 3.91906,-1.23668 8.19979,0.85996 9.48574,4.93517 l 5.59015,17.71537 c 1.23668,3.91906 -0.85996,8.19979 -4.93517,9.48574 l -17.7123,5.58919 c -3.91906,1.23667 -8.20286,-0.859 -9.48881,-4.9342 l -5.59015,-17.71538 c -1.23668,-3.91905 0.85996,-8.19979 4.93823,-9.48671 z m 0,0"
         inkscape:connector-curvature="0"
         style="fill:#acdef9;stroke-width:0.82190949" />
      <path
         id="path116"
         d="m 664.47523,420.9296 17.71231,-5.58919 c 3.91906,-1.23667 8.20285,0.85899 9.4888,4.9342 l 5.59015,17.71537 c 1.23667,3.91905 -0.85996,8.19979 -4.93823,9.4867 l -17.7123,5.58919 c -3.91906,1.23668 -8.1998,-0.85995 -9.48575,-4.93517 l -5.59015,-17.71536 c -1.23667,-3.91907 1.01611,-8.24907 4.93517,-9.48574 z m 0,0"
         inkscape:connector-curvature="0"
         style="fill:#acdef9;stroke-width:0.82190949" />
      <path
         id="path118"
         d="m 712.60005,405.74363 17.71536,-5.59016 c 3.91906,-1.23667 8.19979,0.85996 9.48574,4.93517 l 5.59015,17.71537 c 1.23668,3.91905 -0.85996,8.1998 -4.93516,9.48574 l -17.71538,5.59015 c -3.91905,1.23668 -8.19978,-0.85995 -9.48574,-4.93517 l -5.59015,-17.71536 c -1.23667,-3.91906 0.85997,-8.1998 4.93518,-9.48574 z m 0,0"
         inkscape:connector-curvature="0"
         style="fill:#acdef9;stroke-width:0.82190949" />
      <path
         id="path120"
         d="m 811.20491,216.2181 17.71537,-5.59015 c 3.91906,-1.23667 8.19979,0.85996 9.48574,4.93517 l 5.59016,17.71537 c 1.23667,3.91906 -0.85997,8.19979 -4.93518,9.48574 l -17.71536,5.59016 c -3.91906,1.23667 -8.1998,-0.85997 -9.48575,-4.93518 l -5.59015,-17.71536 c -1.1298,-4.12449 1.01611,-8.24907 4.93517,-9.48575 z m 0,0"
         inkscape:connector-curvature="0"
         style="fill:#6dcc6d;stroke-width:0.82190949" />
      <path
         id="path122"
         d="m 761.70112,307.33942 -4.25493,-13.48401 c -1.23668,-3.91905 -5.56669,-6.17184 -9.48575,-4.93516 l -17.71536,5.59015 c -3.91906,1.23667 -6.17184,5.56668 -4.93517,9.48574 l 5.59015,17.71537 c 1.23668,3.91905 5.56668,6.17184 9.48575,4.93516 l 15.52007,-4.89742 c 1.537,-4.966 3.43557,-9.87439 5.79524,-14.40983 z m 0,0"
         inkscape:connector-curvature="0"
         style="fill:#acdef9;stroke-width:0.82190949" />
      <path
         id="path124"
         d="m 707.91403,57.135819 -2.81989,0.88982 -0.8908,-2.82294 c -0.69273,-2.19529 -2.96044,-3.37512 -5.15573,-2.68239 -2.19529,0.69273 -3.37511,2.96045 -2.68238,5.15573 l 0.89079,2.82295 -2.82294,0.89079 c -2.19529,0.69273 -3.37512,2.96045 -2.68239,5.15573 0.69176,2.19223 2.96045,3.37512 5.15573,2.68239 l 2.82295,-0.89079 0.88982,2.81988 c 0.69273,2.19529 2.96045,3.37512 5.15574,2.68239 2.19527,-0.69273 3.37511,-2.96045 2.68238,-5.15574 l -0.88983,-2.81988 2.81989,-0.88983 c 2.19528,-0.69273 3.37415,-2.96351 2.68239,-5.15573 -0.69273,-2.19528 -2.96045,-3.37511 -5.15573,-2.68238 z m 0,0"
         inkscape:connector-curvature="0"
         style="fill:#55acd5;stroke-width:0.82190949" />
      <path
         id="path126"
         d="m 682.0748,99.245379 c -0.0985,-0.3123 -0.30494,-0.42223 -0.40349,-0.73453 -0.20542,-0.10688 -0.30494,-0.42224 -0.51341,-0.52815 -0.20543,-0.10688 -0.46013,-0.36991 -0.66652,-0.47984 -2.01205,-0.91374 -4.36349,-0.17174 -5.48668,1.73134 -0.10591,0.20849 -0.21585,0.41488 -0.27345,0.776451 -0.16351,0.57006 -0.17185,1.08778 -0.18226,1.60953 -0.007,0.52079 0.18973,1.14539 0.49467,1.56763 0.0985,0.3123 0.30799,0.42127 0.40654,0.73357 0.2547,0.26303 0.30493,0.42224 0.51036,0.52911 0.20543,0.10688 0.46012,0.36991 0.66957,0.47888 2.06229,1.07295 4.41373,0.33095 5.48668,-1.73135 0.10591,-0.20848 0.21279,-0.41391 0.27039,-0.77548 0.10688,-0.20542 0.16658,-0.57102 0.11731,-0.72717 0.10687,-0.20543 0.007,-0.52079 -0.0912,-0.83309 -0.0419,-0.67693 -0.18972,-1.145391 -0.33851,-1.616901 z m 0,0"
         inkscape:connector-curvature="0"
         style="fill:#ffcd29;stroke-width:0.82190949" />
      <path
         id="path128"
         d="m 604.25973,105.01102 c -5.47099,0.69284 -10.83214,-2.09642 -13.61338,-7.080111 -0.0492,-0.15615 -0.20542,-0.10687 -0.36158,-0.0576 -0.15615,0.0493 -0.10688,0.20543 -0.10688,0.20543 0.69284,5.470991 -2.09948,10.833111 -7.08107,13.610331 -0.15921,0.0502 -0.10994,0.20639 -0.0597,0.3656 0.0492,0.15615 0.20848,0.10591 0.20848,0.10591 5.46793,-0.69187 10.82909,2.09739 13.61033,7.08107 0.0493,0.15615 0.20542,0.10688 0.36158,0.0576 0.15614,-0.0493 0.10687,-0.20542 0.10687,-0.20542 -0.68978,-5.47196 2.09949,-10.83311 7.08414,-13.61129 0.15614,-0.0493 0.10687,-0.20543 0.0566,-0.36464 -0.0493,-0.15615 -0.0493,-0.15615 -0.20543,-0.10688 z m 0,0"
         inkscape:connector-curvature="0"
         style="fill:#6dcc6d;stroke-width:0.82190949" />
      <g
         id="g196"
         style="fill:#231f20"
         transform="matrix(0.78381166,-0.24733478,0.24733478,0.78381166,460.14121,127.90815)">
        <path
           id="path130"
           d="m 46.800781,137.39844 c -8.402343,0 -15.402343,-6.79688 -15.402343,-15.39844 V 60.199219 c 0,-8.398438 6.800781,-15.398438 15.402343,-15.398438 8.597657,0 15.398438,6.800781 15.398438,15.398438 V 122 c 0,8.39844 -6.800781,15.39844 -15.398438,15.39844 z m 0,-82.39844 c -3,0 -5.402343,2.398438 -5.402343,5.398438 V 122 c 0,3 2.402343,5.39844 5.402343,5.39844 3,0 5.398438,-2.39844 5.398438,-5.39844 V 60.199219 C 52.199219,57.398438 49.800781,55 46.800781,55 Z m 0,0"
           inkscape:connector-curvature="0" />
        <path
           id="path132"
           d="M 88.398438,137.39844 C 80,137.39844 73,130.60156 73,122 V 60.199219 C 73,51.800781 80,44.800781 88.601562,45 97,45 103.80078,51.800781 103.80078,60.199219 V 122 c 0,8.39844 -6.999999,15.39844 -15.402342,15.39844 z m 0,-82.39844 C 85.398438,55 83,57.398438 83,60.398438 V 122 c 0,3 2.601562,5.39844 5.398438,5.19922 2.800781,0 5.203124,-2.39844 5.203124,-5.19922 V 60.199219 C 93.800781,57.398438 91.398438,55 88.398438,55 Z m 0,0"
           inkscape:connector-curvature="0" />
        <path
           id="path134"
           d="m 130,137.39844 c -8.39844,0 -15.39844,-6.79688 -15.39844,-15.39844 V 60.199219 c 0,-8.398438 6.79688,-15.398438 15.39844,-15.398438 8.60156,0 15.39844,6.800781 15.39844,15.398438 V 122 c -0.19922,8.39844 -7,15.39844 -15.39844,15.39844 z M 130,55 c -3,0 -5.39844,2.398438 -5.39844,5.398438 V 122 c 0,3 2.39844,5.39844 5.39844,5.39844 3,0 5.39844,-2.39844 5.39844,-5.39844 V 60.199219 C 135.19922,57.398438 132.80078,55 130,55 Z m 0,0"
           inkscape:connector-curvature="0" />
        <path
           id="path136"
           d="m 336.19922,137.39844 c -8.39844,0 -15.39844,-6.79688 -15.39844,-15.39844 V 60.199219 c 0,-8.398438 7,-15.398438 15.59766,-15.199219 8.40234,0 15.20312,6.800781 15.20312,15.199219 V 122 c 0,8.39844 -6.80078,15.39844 -15.40234,15.39844 z m 0,-82.39844 c -3,0 -5.39844,2.398438 -5.39844,5.398438 V 122 c 0,3 2.59766,5.39844 5.39844,5.19922 2.80078,0 5.19922,-2.39844 5.19922,-5.19922 V 60.199219 C 341.60156,57.398438 339.19922,55 336.19922,55 Z m 0,0"
           inkscape:connector-curvature="0" />
        <path
           id="path138"
           d="m 377.80078,137.39844 c -8.40234,0 -15.40234,-6.79688 -15.40234,-15.39844 V 60.199219 c 0,-8.398438 7,-15.398438 15.60156,-15.199219 8.39844,0 15.19922,6.800781 15.19922,15.199219 V 122 c 0,8.39844 -7,15.39844 -15.39844,15.39844 z m 0,-82.39844 c -3,0 -5.40234,2.398438 -5.40234,5.398438 V 122 c 0,3 2.60156,5.39844 5.40234,5.19922 C 380.60156,127.19922 383,124.80078 383,122 V 60.199219 C 383.19922,57.398438 380.80078,55 377.80078,55 Z m 0,0"
           inkscape:connector-curvature="0" />
        <path
           id="path140"
           d="M 419.39844,137.39844 C 411,137.39844 404,130.60156 404,122 V 60.199219 C 404,51.800781 411,44.800781 419.60156,45 428,45 434.80078,51.800781 434.80078,60.199219 V 122 c -0.19922,8.39844 -7,15.39844 -15.40234,15.39844 z m 0,-82.39844 C 416.39844,55 414,57.398438 414,60.398438 V 122 c 0,3 2.60156,5.39844 5.39844,5.19922 2.80078,0 5.20312,-2.39844 5.20312,-5.19922 V 60.199219 C 424.60156,57.398438 422.19922,55 419.39844,55 Z m 0,0"
           inkscape:connector-curvature="0" />
        <path
           id="path142"
           d="M 450,195.80078 H 17.199219 C 7.601562,195.80078 0,188 0,178.60156 V 103.39844 C 0,93.800781 7.800781,86.199219 17.199219,86.199219 h 19.199219 c 2.800781,0 5,2.199219 5,5 V 122 c 0,3 2.402343,5.39844 5.402343,5.39844 3,0 5.398438,-2.39844 5.398438,-5.39844 V 91.199219 c 0,-2.800781 2.199219,-5 5,-5 H 78 c 2.800781,0 5,2.199219 5,5 V 122 c 0,3 2.398438,5.39844 5.199219,5.39844 3,0 5.402343,-2.39844 5.402343,-5.19922 V 122 91.199219 c 0,-2.800781 2.199219,-5 5,-5 h 20.796878 c 2.80078,0 5,2.199219 5,5 V 122 c 0,3 2.40234,5.39844 5.40234,5.39844 3,0 5.39844,-2.39844 5.39844,-5.39844 V 91.199219 c 0,-2.800781 2.19922,-5 5,-5 h 185.60156 c 2.80078,0 5,2.199219 5,5 V 122 c 0,3 2.39844,5.39844 5.19922,5.39844 3,0 5.39844,-2.39844 5.39844,-5.19922 V 122 91.199219 c 0,-2.800781 2.20312,-5 5,-5 h 20.80078 c 2.80078,0 5,2.199219 5,5 V 122 c 0,3 2.40234,5.39844 5.19922,5.39844 3,0 5.40234,-2.39844 5.40234,-5.19922 V 122 91.199219 c 0,-2.800781 2.19922,-5 5,-5 h 20.80078 c 2.79688,0 5,2.199219 5,5 V 122 c 0,3 2.39844,5.39844 5.19922,5.39844 3,0 5.39844,-2.39844 5.39844,-5.19922 V 122 91.199219 c 0,-2.800781 2.19922,-5 5,-5 h 20.40234 c 9.59766,0 17.19922,7.800781 17.19922,17.199221 v 75.20312 c 0.39844,9.59766 -7.19922,17.19922 -16.80078,17.19922 z M 17.199219,96.199219 c -4,0 -7.199219,3.199219 -7.199219,7.199221 v 75.20312 c 0,4 3.199219,7.19922 7.199219,7.19922 H 450 c 4,0 7.19922,-3.19922 7.19922,-7.19922 V 103.39844 C 457.19922,99.398438 454,96.199219 450,96.199219 H 434.60156 V 122 c 0,8.39844 -6.80078,15.39844 -15.20312,15.60156 C 411,137.80078 404,130.80078 403.80078,122.39844 c 0,-0.19922 0,-0.19922 0,-0.39844 V 96.199219 H 393 V 122 c 0,8.39844 -6.80078,15.39844 -15.19922,15.60156 -8.40234,0.19922 -15.40234,-6.80078 -15.60156,-15.20312 0,-0.19922 0,-0.19922 0,-0.39844 V 96.199219 H 351.39844 V 122 c 0,8.39844 -6.79688,15.39844 -15.19922,15.60156 -8.39844,0.19922 -15.39844,-6.80078 -15.59766,-15.20312 0,-0.19922 0,-0.19922 0,-0.39844 V 96.199219 H 145.19922 V 122 c 0,8.39844 -6.80078,15.39844 -15.39844,15.39844 -8.60156,0 -15.40234,-6.79688 -15.40234,-15.39844 V 96.199219 H 103.80078 V 122 c 0,8.39844 -6.80078,15.39844 -15.199218,15.60156 C 80.199219,137.80078 73.199219,130.80078 73,122.39844 73,122.19922 73,122.19922 73,122 V 96.199219 H 62.199219 V 122 c 0,8.39844 -6.800781,15.39844 -15.398438,15.39844 -8.402343,0 -15.402343,-6.79688 -15.402343,-15.39844 V 96.199219 Z m 0,0"
           inkscape:connector-curvature="0" />
        <path
           id="path144"
           d="M 288.60156,146 H 178.80078 c -2.80078,0 -5,-2.19922 -5,-5 0,-2.80078 2.19922,-5 5,-5 h 109.80078 c 2.79688,0 5,2.19922 5,5 0,2.80078 -2.20312,5 -5,5 z m 0,0"
           inkscape:connector-curvature="0" />
        <path
           id="path146"
           d="M 213.80078,276.80078 H 191.19922 C 183.39844,276.80078 177,270.39844 177,262.60156 V 240 c 0,-7.80078 6.39844,-14.19922 14.19922,-14.19922 h 22.60156 C 221.60156,225.80078 228,232.19922 228,240 v 22.60156 c -0.19922,7.79688 -6.39844,14.19922 -14.19922,14.19922 z M 191.19922,236 C 189,236 187,237.80078 187,240.19922 v 22.60156 C 187,265 188.80078,267 191.19922,267 h 22.60156 C 216,267 218,265.19922 218,262.80078 V 240.19922 C 218,238 216.19922,236 213.80078,236 Z m 0,0"
           inkscape:connector-curvature="0" />
        <path
           id="path148"
           d="m 275,276.80078 h -22.60156 c -7.79688,0 -14.19922,-6.40234 -14.19922,-14.19922 V 240 c 0,-7.80078 6.40234,-14.19922 14.19922,-14.19922 H 275 c 7.80078,0 14.19922,6.39844 14.19922,14.19922 v 22.60156 c 0,7.79688 -6.39844,14.19922 -14.19922,14.19922 z M 252.39844,236 c -2.19922,0 -4.19922,1.80078 -4.19922,4.19922 v 22.60156 C 248.19922,265 250,267 252.39844,267 H 275 c 2.19922,0 4.19922,-1.80078 4.19922,-4.19922 V 240.19922 C 279.19922,238 277.39844,236 275,236 Z m 0,0"
           inkscape:connector-curvature="0" />
        <path
           id="path150"
           d="m 336.39844,276.80078 h -22.59766 c -7.80078,0 -14.19922,-6.40234 -14.19922,-14.19922 V 240 c 0,-7.80078 6.39844,-14.19922 14.19922,-14.19922 h 22.59766 c 7.80078,0 14.20312,6.39844 14.20312,14.19922 v 22.60156 c -0.20312,8 -6.40234,14.19922 -14.20312,14.19922 z M 313.80078,236 c -2.19922,0 -4.19922,1.80078 -4.19922,4.19922 v 22.60156 c 0,2.19922 1.79688,4.19922 4.19922,4.19922 h 22.59766 c 2.20312,0 4.20312,-1.80078 4.20312,-4.19922 V 240.19922 C 340.60156,238 338.80078,236 336.39844,236 Z m 0,0"
           inkscape:connector-curvature="0" />
        <path
           id="path152"
           d="M 91.199219,338.19922 H 68.601562 c -7.800781,0 -14.203124,-6.39844 -14.203124,-14.19922 v -22.60156 c 0,-7.79688 6.402343,-14.19922 14.203124,-14.19922 h 22.597657 c 7.800781,0 14.199221,6.40234 14.199221,14.19922 V 324 C 105.19922,331.80078 99,338.19922 91.199219,338.19922 Z m -22.597657,-41 c -2.203124,0 -4.203124,1.80078 -4.203124,4.19922 V 324 c 0,2.19922 1.800781,4.19922 4.203124,4.19922 h 22.597657 c 2.199219,0 4.199219,-1.80078 4.199219,-4.19922 v -22.60156 c 0,-2.19922 -1.796876,-4.19922 -4.199219,-4.19922 z m 0,0"
           inkscape:connector-curvature="0" />
        <path
           id="path154"
           d="M 152.39844,338.19922 H 129.80078 C 122,338.19922 115.60156,331.80078 115.60156,324 v -22.60156 c 0,-7.79688 6.39844,-14.19922 14.19922,-14.19922 h 22.59766 c 7.80078,0 14.20312,6.40234 14.20312,14.19922 V 324 c 0,7.80078 -6.40234,14.19922 -14.20312,14.19922 z m -22.59766,-41 c -2.19922,0 -4.19922,1.80078 -4.19922,4.19922 V 324 c 0,2.19922 1.79688,4.19922 4.19922,4.19922 h 22.59766 c 2.20312,0 4.20312,-1.80078 4.20312,-4.19922 v -22.60156 c 0,-2.19922 -1.80078,-4.19922 -4.20312,-4.19922 z m 0,0"
           inkscape:connector-curvature="0" />
        <path
           id="path156"
           d="M 213.80078,338.19922 H 191.19922 C 183.39844,338.19922 177,331.80078 177,324 v -22.60156 c 0,-7.79688 6.39844,-14.19922 14.19922,-14.19922 h 22.60156 c 7.80078,0 14.19922,6.40234 14.19922,14.19922 V 324 c -0.19922,7.80078 -6.39844,14.19922 -14.19922,14.19922 z m -22.60156,-41 C 189,297.19922 187,299 187,301.39844 V 324 c 0,2.19922 1.80078,4.19922 4.19922,4.19922 h 22.60156 C 216,328.19922 218,326.39844 218,324 v -22.60156 c 0,-2.19922 -1.80078,-4.19922 -4.19922,-4.19922 z m 0,0"
           inkscape:connector-curvature="0" />
        <path
           id="path158"
           d="M 91.199219,399.39844 H 68.601562 c -7.800781,0 -14.203124,-6.39844 -14.203124,-14.19922 v -22.59766 c 0,-7.80078 6.402343,-14.20312 14.203124,-14.20312 h 22.597657 c 7.800781,0 14.199221,6.40234 14.199221,14.20312 v 22.59766 c -0.19922,8 -6.39844,14.19922 -14.199221,14.19922 z M 68.601562,358.60156 c -2.203124,0 -4.203124,1.79688 -4.203124,4.19922 v 22.59766 c 0,2.20312 1.800781,4.20312 4.203124,4.20312 h 22.597657 c 2.199219,0 4.199219,-1.80078 4.199219,-4.20312 v -22.59766 c 0,-2.19922 -1.796876,-4.19922 -4.199219,-4.19922 z m 0,0"
           inkscape:connector-curvature="0" />
        <path
           id="path160"
           d="M 152.39844,399.39844 H 129.80078 C 122,399.39844 115.60156,393 115.60156,385.19922 v -22.59766 c 0,-7.80078 6.39844,-14.20312 14.19922,-14.20312 h 22.59766 c 7.80078,0 14.20312,6.40234 14.20312,14.20312 v 22.59766 c 0,8 -6.40234,14.19922 -14.20312,14.19922 z m -22.59766,-40.79688 c -2.19922,0 -4.19922,1.79688 -4.19922,4.19922 v 22.59766 c 0,2.20312 1.79688,4.20312 4.19922,4.20312 h 22.59766 c 2.20312,0 4.20312,-1.80078 4.20312,-4.20312 v -22.59766 c 0,-2.19922 -1.80078,-4.19922 -4.20312,-4.19922 z m 0,0"
           inkscape:connector-curvature="0" />
        <path
           id="path162"
           d="M 213.80078,399.39844 H 191.19922 C 183.39844,399.39844 177,393 177,385.19922 v -22.59766 c 0,-7.80078 6.39844,-14.20312 14.19922,-14.20312 h 22.60156 c 7.80078,0 14.19922,6.40234 14.19922,14.20312 v 22.59766 c -0.19922,8 -6.39844,14.19922 -14.19922,14.19922 z M 191.19922,358.60156 C 189,358.60156 187,360.39844 187,362.80078 v 22.59766 c 0,2.20312 1.80078,4.20312 4.19922,4.20312 h 22.60156 C 216,389.60156 218,387.80078 218,385.39844 v -22.59766 c 0,-2.19922 -1.80078,-4.19922 -4.19922,-4.19922 z m 0,0"
           inkscape:connector-curvature="0" />
        <path
           id="path164"
           d="M 91.199219,460.80078 H 68.601562 c -7.800781,0 -14.203124,-6.40234 -14.203124,-14.19922 V 424 c 0,-7.80078 6.402343,-14.19922 14.203124,-14.19922 H 91.199219 C 99,409.80078 105.39844,416.19922 105.39844,424 v 22.60156 C 105.19922,454.39844 99,460.80078 91.199219,460.80078 Z m -22.597657,-41 c -2.203124,0 -4.203124,1.80078 -4.203124,4.19922 v 22.60156 c 0,2.19922 1.800781,4.19922 4.203124,4.19922 h 22.597657 c 2.199219,0 4.199219,-1.80078 4.199219,-4.19922 V 424 c 0,-2.19922 -1.796876,-4.19922 -4.199219,-4.19922 z m 0,0"
           inkscape:connector-curvature="0" />
        <path
           id="path166"
           d="m 152.39844,460.80078 h -22.59766 c -7.80078,0 -14.19922,-6.40234 -14.19922,-14.19922 V 424 c 0,-7.80078 6.39844,-14.19922 14.19922,-14.19922 h 22.59766 c 7.80078,0 14.20312,6.39844 14.20312,14.19922 v 22.60156 c 0,7.79688 -6.40234,14.19922 -14.20312,14.19922 z m -22.59766,-41 c -2.19922,0 -4.19922,1.80078 -4.19922,4.19922 v 22.60156 c 0,2.19922 1.79688,4.19922 4.19922,4.19922 h 22.59766 c 2.20312,0 4.20312,-1.80078 4.20312,-4.19922 V 424 c 0,-2.19922 -1.80078,-4.19922 -4.20312,-4.19922 z m 0,0"
           inkscape:connector-curvature="0" />
        <path
           id="path168"
           d="M 213.80078,460.80078 H 191.19922 C 183.39844,460.80078 177,454.39844 177,446.60156 V 424 c 0,-7.80078 6.39844,-14.19922 14.19922,-14.19922 h 22.60156 C 221.60156,409.80078 228,416.19922 228,424 v 22.60156 c -0.19922,7.79688 -6.39844,14.19922 -14.19922,14.19922 z m -22.60156,-41 C 189,419.80078 187,421.60156 187,424 v 22.60156 c 0,2.19922 1.80078,4.19922 4.19922,4.19922 h 22.60156 C 216,450.80078 218,449 218,446.60156 V 424 c 0,-2.19922 -1.80078,-4.19922 -4.19922,-4.19922 z m 0,0"
           inkscape:connector-curvature="0" />
        <path
           id="path170"
           d="M 397.60156,276.80078 H 375 c -7.80078,0 -14.19922,-6.40234 -14.19922,-14.19922 V 240 c 0,-7.80078 6.39844,-14.19922 14.19922,-14.19922 h 22.60156 c 7.79688,0 14.19922,6.39844 14.19922,14.19922 v 22.60156 c 0,7.79688 -6.40234,14.19922 -14.19922,14.19922 z M 375,236 c -2.19922,0 -4.19922,1.80078 -4.19922,4.19922 v 22.60156 C 370.80078,265 372.60156,267 375,267 h 22.60156 c 2.19922,0 4.19922,-1.80078 4.19922,-4.19922 V 240.19922 C 401.80078,238 400,236 397.60156,236 Z m 0,0"
           inkscape:connector-curvature="0" />
        <path
           id="path172"
           d="m 272.19922,338.19922 h -19.80078 c -7.79688,0 -14.19922,-6.39844 -14.19922,-14.19922 v -22.60156 c 0,-7.79688 6.40234,-14.19922 14.19922,-14.19922 H 275 c 7.80078,0 14.19922,6.40234 14.19922,14.19922 v 17.20312 c 0,1.39844 -0.59766,2.59766 -1.39844,3.39844 -4.19922,4.39844 -8,9 -11.40234,14 -1,1.39844 -2.59766,2.19922 -4.19922,2.19922 z m -19.80078,-41 c -2.19922,0 -4.19922,1.80078 -4.19922,4.19922 V 324 c 0,2.19922 1.80078,4.19922 4.19922,4.19922 h 17.20312 c 3,-4 6.19922,-8 9.59766,-11.59766 v -15.20312 c 0,-2.19922 -1.80078,-4.19922 -4.19922,-4.19922 z m 31.80078,21.40234"
           inkscape:connector-curvature="0" />
        <path
           id="path174"
           d="M 363.60156,512 H 27.398438 c -9.597657,0 -17.199219,-7.80078 -17.199219,-17.19922 v -304 c 0,-2.80078 2.199219,-5 5,-5 H 452.19922 c 2.80078,0 5,2.19922 5,5 V 329 c 0,2.80078 -2.19922,5 -5,5 -1.59766,0 -3,-0.80078 -4,-2 -35.39844,-46.60156 -101.80078,-56 -148.39844,-20.60156 -46.60156,35.40234 -56,101.80078 -20.60156,148.40234 20,26.39844 51.40234,42 84.60156,42 2.80078,0 5,2.19922 5,5 0,2.80078 -2.40234,5.19922 -5.19922,5.19922 z M 20.199219,195.80078 v 299 c 0,4 3.199219,7.19922 7.199219,7.19922 H 316.60156 C 258,476 231.60156,407.39844 257.80078,348.80078 276.39844,307 318,280 363.80078,280 c 31.59766,-0.19922 61.80078,12.80078 83.59766,35.39844 V 195.80078 Z m 0,0"
           inkscape:connector-curvature="0" />
        <path
           id="path176"
           d="m 363.60156,389.60156 c -2.80078,0 -5,-2.20312 -5,-5 v -55 c 0,-2.80078 2.19922,-5 5,-5 2.79688,0 5,2.19922 5,5 v 55 c 0,2.79688 -2.20312,5 -5,5 z m 0,0"
           inkscape:connector-curvature="0" />
        <path
           id="path178"
           d="m 325.19922,433.60156 c -2.80078,0 -5,-2.20312 -5,-5 0,-1.40234 0.60156,-2.80078 1.80078,-3.80078 l 31,-26 c 2.19922,-1.80078 5.19922,-1.40234 7,0.59766 1.80078,2.20312 1.39844,5.20312 -0.60156,7 l -31,26 c -1,0.80078 -2,1.20312 -3.19922,1.20312 z m 0,0"
           inkscape:connector-curvature="0" />
        <path
           id="path180"
           d="m 319.39844,267 c -1.39844,0 -2.79688,-0.60156 -3.59766,-1.60156 l -8.40234,-9.19922 c -1.79688,-2 -1.79688,-5.19922 0.40234,-7 2,-1.80078 5.19922,-1.80078 7,0.40234 l 5,5.39844 15.59766,-15.60156 c 2,-2 5.20312,-1.79688 7,0.20312 1.80078,2 1.80078,5 0,7 l -19.19922,19.19922 C 322,266.39844 320.80078,267 319.39844,267 Z m 0,0"
           inkscape:connector-curvature="0" />
        <path
           id="path182"
           d="m 381.39844,267 c -1.39844,0 -2.79688,-0.60156 -3.59766,-1.60156 l -8.40234,-9.19922 c -1.79688,-2 -1.79688,-5.19922 0.40234,-7 2,-1.80078 5.19922,-1.80078 7,0.40234 l 5,5.39844 15.59766,-15.60156 c 2,-2 5.20312,-1.79688 7,0.20312 1.80078,2 1.80078,5 0,7 l -19.19922,19.19922 C 384,266.39844 382.80078,267 381.39844,267 Z m 0,0"
           inkscape:connector-curvature="0" />
        <path
           id="path184"
           d="M 75.398438,327 C 74,327 72.601562,326.39844 71.800781,325.39844 l -8.402343,-9.19922 c -1.796876,-2 -1.796876,-5.19922 0.402343,-7 2,-1.80078 5.199219,-1.80078 7,0.40234 l 5,5.39844 15.597657,-15.60156 c 2,-2 5,-2 7,-0.19922 2.000002,2 2.000002,5 0.203124,7 0,0 0,0 -0.203124,0.19922 L 79.199219,325.60156 C 78,326.39844 76.800781,327 75.398438,327 Z m 0,0"
           inkscape:connector-curvature="0" />
        <path
           id="path186"
           d="m 135.39844,327 c -1.39844,0 -2.79688,-0.60156 -3.59766,-1.60156 l -8.40234,-9.19922 c -1.79688,-2 -1.79688,-5.19922 0.40234,-7 2,-1.80078 5.19922,-1.80078 7,0.40234 l 5,5.39844 15.59766,-15.60156 c 2,-2 5,-2 7,-0.19922 2,1.80078 2,5 0.20312,7 0,0 0,0 -0.20312,0.19922 l -19.19922,19.20312 C 138,326.39844 136.80078,327 135.39844,327 Z m 0,0"
           inkscape:connector-curvature="0" />
        <path
           id="path188"
           d="m 197.39844,327 c -1.39844,0 -2.79688,-0.60156 -3.59766,-1.60156 l -8.40234,-9.19922 c -1.79688,-2 -1.79688,-5.19922 0.40234,-7 2,-1.80078 5.19922,-1.80078 7,0.40234 l 5,5.39844 15.59766,-15.60156 c 2,-2 5,-2 7,-0.19922 2,1.80078 2,5 0.20312,7 0,0 0,0 -0.20312,0.19922 l -19.19922,19.20312 C 200,326.39844 198.80078,327 197.39844,327 Z m 0,0"
           inkscape:connector-curvature="0" />
        <path
           id="path190"
           d="m 363.60156,512 c -64,0 -116,-52 -116,-116 0,-64 52,-116 116,-116 64,0 116,52 116,116 0,64 -52,116 -116,116 z m 0,-222 c -58.60156,0 -106,47.39844 -106,106 0,58.60156 47.39844,106 106,106 58.59766,0 106,-47.39844 106,-106 0,-58.60156 -47.40234,-106 -106,-106 z m 0,0"
           inkscape:connector-curvature="0" />
        <path
           id="path192"
           d="m 363.60156,487 c -50.20312,0 -91,-40.80078 -91,-91 0,-50.19922 40.79688,-91 91,-91 50.19922,0 91,40.80078 91,91 0,50.19922 -40.80078,91 -91,91 z m 0,-172 c -44.80078,0 -81,36.19922 -81,81 0,44.80078 36.19922,81 81,81 44.79688,0 81,-36.19922 81,-81 0,-44.80078 -36.20312,-81 -81,-81 z m 0,0"
           inkscape:connector-curvature="0" />
        <path
           id="path194"
           d="m 363.60156,411 c -8.20312,0 -15,-6.80078 -15,-15 0,-8.19922 6.79688,-15 15,-15 8.19922,0 15,6.80078 15,15 0,8.19922 -6.60156,15 -15,15 z m 0,-20 c -2.80078,0 -5,2.19922 -5,5 0,2.80078 2.19922,5 5,5 2.79688,0 5,-2.19922 5,-5 0,-2.80078 -2.20312,-5 -5,-5 z m 0,0"
           inkscape:connector-curvature="0" />
      </g>
    </g>
  </g>
</svg>
